STARTFONT 2.3
FONT -FontForge-Indie Flower-Book-R-Normal--20-200-72-72-P-91-ISO10646-1
SIZE 20 72 72  2
FONTBOUNDINGBOX 25 30 -3 -10
COMMENT "Generated by fontforge, http://fontforge.sourceforge.net"
COMMENT "Copyright (c) 2010, Kimberly Geswein (kimberlygeswein.com)"
STARTPROPERTIES 40
FOUNDRY "FontForge"
FAMILY_NAME "Indie Flower"
WEIGHT_NAME "Book"
SLANT "R"
SETWIDTH_NAME "Normal"
ADD_STYLE_NAME ""
PIXEL_SIZE 20
POINT_SIZE 200
RESOLUTION_X 72
RESOLUTION_Y 72
SPACING "P"
AVERAGE_WIDTH 91
CHARSET_REGISTRY "ISO10646"
CHARSET_ENCODING "1"
FONTNAME_REGISTRY ""
CHARSET_COLLECTIONS "ISO8859-2 ISO8859-9 ISO8859-4 ISO10646-1"
BITS_PER_PIXEL 2
FONT_NAME "IndieFlower"
FACE_NAME "Indie Flower"
COPYRIGHT "Copyright (c) 2010, Kimberly Geswein (kimberlygeswein.com)"
FONT_VERSION "1.001 2010"
FONT_ASCENT 16
FONT_DESCENT 4
UNDERLINE_POSITION -2
UNDERLINE_THICKNESS 1
X_HEIGHT 7
CAP_HEIGHT 9
RAW_ASCENT 799
RAW_DESCENT 200
NORM_SPACE 8
RELATIVE_WEIGHT 40
RELATIVE_SETWIDTH 50
SUPERSCRIPT_X 0
SUPERSCRIPT_Y 9
SUPERSCRIPT_SIZE 13
SUBSCRIPT_X 0
SUBSCRIPT_Y 2
SUBSCRIPT_SIZE 13
AVG_LOWERCASE_WIDTH 90
AVG_UPPERCASE_WIDTH 106
ENDPROPERTIES
CHARS 356
STARTCHAR space
ENCODING 32
SWIDTH 375 0
DWIDTH 8 0
BBX 1 1 0 0
BITMAP
00
ENDCHAR
STARTCHAR exclam
ENCODING 33
SWIDTH 149 0
DWIDTH 3 0
BBX 3 17 0 0
BITMAP
10
60
60
60
60
60
60
60
60
70
70
20
00
00
00
74
B4
ENDCHAR
STARTCHAR quotedbl
ENCODING 34
SWIDTH 234 0
DWIDTH 5 0
BBX 4 6 0 10
BITMAP
42
93
93
63
73
23
ENDCHAR
STARTCHAR numbersign
ENCODING 35
SWIDTH 768 0
DWIDTH 15 0
BBX 15 10 0 0
BITMAP
00085000
000C6000
000C3540
016FFEA0
6FAE7400
A40A7EF8
05AFB954
0A5A2800
00062800
00001400
ENDCHAR
STARTCHAR dollar
ENCODING 36
SWIDTH 581 0
DWIDTH 12 0
BBX 12 19 0 0
BITMAP
000400
000C80
001880
001E80
00BED0
02A580
032540
01B540
007640
003B80
0037A0
003628
00290C
A0690D
28990C
07ED18
00BEB4
00AE40
005800
ENDCHAR
STARTCHAR percent
ENCODING 37
SWIDTH 636 0
DWIDTH 13 0
BBX 13 12 0 0
BITMAP
00001800
1A002000
76C08000
90924000
91C60000
2B4C0000
00246D00
0070D700
00D28340
01C20700
03425D00
0201A400
ENDCHAR
STARTCHAR ampersand
ENCODING 38
SWIDTH 457 0
DWIDTH 9 0
BBX 9 14 0 0
BITMAP
028000
03C000
03D000
03C000
03C000
074000
070F80
0B0C00
199800
34F400
60B000
90F400
964800
7D0100
ENDCHAR
STARTCHAR quotesingle
ENCODING 39
SWIDTH 102 0
DWIDTH 2 0
BBX 2 5 0 10
BITMAP
40
90
A0
60
60
ENDCHAR
STARTCHAR parenleft
ENCODING 40
SWIDTH 421 0
DWIDTH 8 0
BBX 8 13 0 -1
BITMAP
0019
00BA
0280
0600
1C00
2400
7000
A000
A000
6000
3400
1E40
0690
ENDCHAR
STARTCHAR parenright
ENCODING 41
SWIDTH 290 0
DWIDTH 6 0
BBX 6 13 0 -1
BITMAP
2800
0E00
0340
01C0
00D0
0090
0090
00C0
0280
0740
1E00
7C00
A000
ENDCHAR
STARTCHAR asterisk
ENCODING 42
SWIDTH 412 0
DWIDTH 8 0
BBX 8 7 0 5
BITMAP
100A
2AB4
0BF8
7BF4
1DF4
28BC
1064
ENDCHAR
STARTCHAR plus
ENCODING 43
SWIDTH 459 0
DWIDTH 9 0
BBX 9 9 0 0
BITMAP
010000
024000
028000
01D000
6BFF80
65D500
00D000
00D000
009000
ENDCHAR
STARTCHAR comma
ENCODING 44
SWIDTH 130 0
DWIDTH 3 0
BBX 2 7 0 -4
BITMAP
60
70
70
60
A0
90
80
ENDCHAR
STARTCHAR hyphen
ENCODING 45
SWIDTH 375 0
DWIDTH 8 0
BBX 7 2 0 5
BITMAP
0550
7FB8
ENDCHAR
STARTCHAR period
ENCODING 46
SWIDTH 204 0
DWIDTH 4 0
BBX 3 4 1 0
BITMAP
60
F4
F4
A0
ENDCHAR
STARTCHAR slash
ENCODING 47
SWIDTH 309 0
DWIDTH 6 0
BBX 6 15 0 0
BITMAP
0020
0060
0060
0090
01C0
0280
0340
0700
0A00
0D00
1C00
2800
7000
A000
9000
ENDCHAR
STARTCHAR zero
ENCODING 48
SWIDTH 430 0
DWIDTH 9 0
BBX 8 9 0 0
BITMAP
06E0
1D68
3009
6007
9003
5007
300A
191D
06F4
ENDCHAR
STARTCHAR one
ENCODING 49
SWIDTH 318 0
DWIDTH 6 0
BBX 6 12 0 0
BITMAP
0020
0070
0060
00E0
03E0
0ED0
28D0
A1C0
01C0
01C0
0180
0140
ENDCHAR
STARTCHAR two
ENCODING 50
SWIDTH 497 0
DWIDTH 10 0
BBX 10 11 0 0
BITMAP
006900
009700
008240
000280
000180
000280
000340
000600
B91C00
BFFD40
1A5AD0
ENDCHAR
STARTCHAR three
ENCODING 51
SWIDTH 430 0
DWIDTH 9 0
BBX 8 11 0 0
BITMAP
1A90
3974
0018
0074
1BD0
1AE4
002D
0006
7003
2D0B
06F9
ENDCHAR
STARTCHAR four
ENCODING 52
SWIDTH 412 0
DWIDTH 8 0
BBX 8 12 0 0
BITMAP
2400
3400
7000
9002
900A
901E
603D
3EFD
0A49
000A
000A
000A
ENDCHAR
STARTCHAR five
ENCODING 53
SWIDTH 571 0
DWIDTH 11 0
BBX 11 13 0 0
BITMAP
00BFF8
00D000
018000
034000
079000
06BD00
000680
000090
000060
800060
9000A0
7957C0
0AFE00
ENDCHAR
STARTCHAR six
ENCODING 54
SWIDTH 440 0
DWIDTH 9 0
BBX 9 12 0 0
BITMAP
002F00
01E600
074000
0D0000
240000
3AA400
795D00
A00700
900340
600700
396E00
0BE400
ENDCHAR
STARTCHAR seven
ENCODING 55
SWIDTH 412 0
DWIDTH 8 0
BBX 8 11 0 0
BITMAP
6A50
1570
0030
0030
0070
1AF9
05E6
00D0
00C0
01C0
0180
ENDCHAR
STARTCHAR eight
ENCODING 56
SWIDTH 375 0
DWIDTH 8 0
BBX 7 12 0 0
BITMAP
0500
2ED0
7060
9090
7580
1F40
1E80
3460
3028
340C
1D18
06F4
ENDCHAR
STARTCHAR nine
ENCODING 57
SWIDTH 300 0
DWIDTH 6 0
BBX 6 12 0 0
BITMAP
1F80
6090
90A0
90E0
A0E0
2FD0
01D0
0090
0090
00D0
00D0
0090
ENDCHAR
STARTCHAR colon
ENCODING 58
SWIDTH 84 0
DWIDTH 2 0
BBX 2 6 0 1
BITMAP
50
50
00
00
40
40
ENDCHAR
STARTCHAR semicolon
ENCODING 59
SWIDTH 128 0
DWIDTH 3 0
BBX 3 12 -1 -4
BITMAP
14
18
00
00
00
04
0C
0C
18
38
74
50
ENDCHAR
STARTCHAR less
ENCODING 60
SWIDTH 487 0
DWIDTH 10 0
BBX 9 8 0 0
BITMAP
000280
001E00
00A400
074000
2D0000
B90000
6FF900
005740
ENDCHAR
STARTCHAR equal
ENCODING 61
SWIDTH 524 0
DWIDTH 10 0
BBX 10 6 0 2
BITMAP
2AAA90
5A9560
000000
000000
6AAA80
155540
ENDCHAR
STARTCHAR greater
ENCODING 62
SWIDTH 403 0
DWIDTH 8 0
BBX 8 9 0 0
BITMAP
7400
1F90
01BE
000A
002D
00A0
0780
2D00
6000
ENDCHAR
STARTCHAR question
ENCODING 63
SWIDTH 272 0
DWIDTH 5 0
BBX 5 18 0 0
BITMAP
0400
BE00
4280
00C0
00C0
01C0
0380
0700
0E00
1C00
1D40
0A80
0000
0000
0000
0000
0040
0180
ENDCHAR
STARTCHAR at
ENCODING 64
SWIDTH 815 0
DWIDTH 16 0
BBX 16 18 0 0
BITMAP
001B9000
01E56E00
074002D0
08000074
2400001D
2001A40A
500A5A06
80240286
80600906
50900D0A
60900D0D
30902F68
2835B2E0
0D1A8000
07400000
01D00000
00790168
000BFF90
ENDCHAR
STARTCHAR A
ENCODING 65
SWIDTH 562 0
DWIDTH 11 0
BBX 11 16 0 0
BITMAP
001000
02AD00
090740
1801C0
240090
200060
200030
200030
300024
7AA974
755568
300018
300018
240028
280028
180024
ENDCHAR
STARTCHAR B
ENCODING 66
SWIDTH 741 0
DWIDTH 15 0
BBX 15 14 0 0
BITMAP
06BA4000
7AE5E000
01C02400
00D02400
00907000
0067D000
0072F400
00301B00
003401D0
00240070
00280034
00240034
007D41B0
000AFF80
ENDCHAR
STARTCHAR C
ENCODING 67
SWIDTH 515 0
DWIDTH 10 0
BBX 10 13 0 0
BITMAP
002E00
01E600
074500
180000
200000
600000
500000
900000
900000
600000
340000
2D5BD0
0BE900
ENDCHAR
STARTCHAR D
ENCODING 68
SWIDTH 741 0
DWIDTH 15 0
BBX 15 14 0 -1
BITMAP
05940000
7AAF9000
000C7800
000D0B40
000901C0
000900A0
00060030
00060034
00070034
00070070
000701E0
00240B80
002FF900
00004000
ENDCHAR
STARTCHAR E
ENCODING 69
SWIDTH 524 0
DWIDTH 10 0
BBX 10 13 0 0
BITMAP
155500
7FAA80
600000
600000
600000
756B80
BA9400
600000
900000
900000
900000
655A90
2FFE80
ENDCHAR
STARTCHAR F
ENCODING 70
SWIDTH 514 0
DWIDTH 10 0
BBX 13 12 -1 0
BITMAP
1AFFE900
56D55B80
01C00040
01800000
00C00000
01D55000
0BFFE000
00A00000
00A00000
00A00000
00700000
00600000
ENDCHAR
STARTCHAR G
ENCODING 71
SWIDTH 571 0
DWIDTH 11 0
BBX 11 13 0 -2
BITMAP
000150
002EB4
01D000
0A0000
180000
343AA4
601568
600028
300038
2D56F8
06E928
00002C
000004
ENDCHAR
STARTCHAR H
ENCODING 72
SWIDTH 524 0
DWIDTH 10 0
BBX 10 14 0 0
BITMAP
000040
500090
600090
600090
300090
3000D0
3007D0
34B990
3F9090
780090
280090
1800A0
180060
040060
ENDCHAR
STARTCHAR I
ENCODING 73
SWIDTH 167 0
DWIDTH 3 0
BBX 3 11 0 0
BITMAP
80
A0
60
30
24
24
28
18
1C
1C
0C
ENDCHAR
STARTCHAR J
ENCODING 74
SWIDTH 439 0
DWIDTH 9 0
BBX 9 14 0 0
BITMAP
000800
000900
000600
000700
000300
000300
000340
500240
600240
300240
180240
060240
01D700
006D00
ENDCHAR
STARTCHAR K
ENCODING 75
SWIDTH 468 0
DWIDTH 9 0
BBX 9 12 0 0
BITMAP
401400
907400
51D000
634000
690000
380000
380000
3E0000
338000
30B400
341E00
240280
ENDCHAR
STARTCHAR L
ENCODING 76
SWIDTH 346 0
DWIDTH 7 0
BBX 7 11 0 0
BITMAP
1000
3000
7000
7000
6000
6000
A000
A000
A000
7950
1BF4
ENDCHAR
STARTCHAR M
ENCODING 77
SWIDTH 534 0
DWIDTH 11 0
BBX 10 12 0 0
BITMAP
B000D0
3801D0
2D02D0
2B5BD0
25A9D0
240090
340090
3400A0
3400A0
340070
340070
100030
ENDCHAR
STARTCHAR N
ENCODING 78
SWIDTH 609 0
DWIDTH 12 0
BBX 12 11 0 0
BITMAP
200000
300060
340074
380028
3C001C
7D0009
67000A
62800A
60E00D
703EB8
600A90
ENDCHAR
STARTCHAR O
ENCODING 79
SWIDTH 609 0
DWIDTH 12 0
BBX 12 10 0 0
BITMAP
069000
1EAE00
3002D0
900074
90001C
900009
70000A
28000D
0F41B8
02FE90
ENDCHAR
STARTCHAR P
ENCODING 80
SWIDTH 627 0
DWIDTH 13 0
BBX 13 12 0 0
BITMAP
2BF94000
A016E400
40101D00
00200700
00200340
00300700
00346D00
003FE000
00390000
00240000
00180000
00180000
ENDCHAR
STARTCHAR Q
ENCODING 81
SWIDTH 642 0
DWIDTH 13 0
BBX 13 13 0 -2
BITMAP
01A40000
0A6F4000
2403D000
30037400
60010D00
60000700
60040240
300A0240
28034B00
0B97F800
01BFB400
00001900
00000380
ENDCHAR
STARTCHAR R
ENCODING 82
SWIDTH 579 0
DWIDTH 12 0
BBX 11 14 0 -1
BITMAP
055400
BAAF80
C001B0
450024
090074
0A1AE0
07F900
074000
03C000
037000
025D00
014740
0040A0
000028
ENDCHAR
STARTCHAR S
ENCODING 83
SWIDTH 627 0
DWIDTH 13 0
BBX 12 12 0 0
BITMAP
00BF90
034078
060004
034000
01D000
002D00
0006D0
500068
A0000A
340007
1A401A
01BFF8
ENDCHAR
STARTCHAR T
ENCODING 84
SWIDTH 581 0
DWIDTH 12 0
BBX 14 13 0 0
BITMAP
55400000
6BFFFA40
00091690
00090000
00090000
00090000
000A0000
00060000
00070000
00030000
00034000
00038000
0002C000
ENDCHAR
STARTCHAR U
ENCODING 85
SWIDTH 571 0
DWIDTH 11 0
BBX 11 11 0 0
BITMAP
240040
6000D0
5000D0
500090
6000A0
600060
300070
240074
1801F8
0E5A5C
02F404
ENDCHAR
STARTCHAR V
ENCODING 86
SWIDTH 421 0
DWIDTH 8 0
BBX 8 11 0 0
BITMAP
4001
A003
7407
280A
1C0A
0E0D
0B1C
0358
02E4
00F0
0090
ENDCHAR
STARTCHAR W
ENCODING 87
SWIDTH 703 0
DWIDTH 14 0
BBX 14 10 0 0
BITMAP
80000100
90000240
900002C0
900001D0
A01800D0
A01C00A0
701D0060
347F0090
2EE2D680
0A407E00
ENDCHAR
STARTCHAR X
ENCODING 88
SWIDTH 534 0
DWIDTH 11 0
BBX 11 11 0 -1
BITMAP
1C0064
0901D0
030600
01A800
00E000
02E000
0A3400
1C1D00
340700
600180
900000
ENDCHAR
STARTCHAR Y
ENCODING 89
SWIDTH 403 0
DWIDTH 8 0
BBX 8 14 0 -1
BITMAP
8000
A006
340A
1D0D
07AC
01B8
0034
0070
00A0
0090
00C0
00C0
00C0
0040
ENDCHAR
STARTCHAR Z
ENCODING 90
SWIDTH 571 0
DWIDTH 11 0
BBX 11 13 0 0
BITMAP
054000
7AB800
400A00
000300
000300
000600
016FA0
0BBE50
003400
006000
01C000
0285BC
01FF90
ENDCHAR
STARTCHAR bracketleft
ENCODING 91
SWIDTH 477 0
DWIDTH 10 0
BBX 11 16 0 -2
BITMAP
006B80
1BE400
B80000
600000
300000
340000
280000
180000
0C0000
0C0000
080000
090000
090000
060000
07AAE8
065554
ENDCHAR
STARTCHAR backslash
ENCODING 92
SWIDTH 430 0
DWIDTH 9 0
BBX 8 11 0 0
BITMAP
8000
6000
2800
0E00
0780
01D0
00B4
002C
000E
0007
0003
ENDCHAR
STARTCHAR bracketright
ENCODING 93
SWIDTH 430 0
DWIDTH 9 0
BBX 9 19 0 -2
BITMAP
694000
1BF400
001C00
000D00
000A00
000A00
000600
000600
000200
000200
000300
000300
000300
000300
000300
000300
000340
1AAB40
1FFE00
ENDCHAR
STARTCHAR asciicircum
ENCODING 94
SWIDTH 375 0
DWIDTH 8 0
BBX 6 5 1 10
BITMAP
0500
0F00
2F80
B1D0
4040
ENDCHAR
STARTCHAR underscore
ENCODING 95
SWIDTH 656 0
DWIDTH 13 0
BBX 13 2 0 0
BITMAP
6EAA5540
016ABF80
ENDCHAR
STARTCHAR grave
ENCODING 96
SWIDTH 172 0
DWIDTH 3 0
BBX 3 3 0 8
BITMAP
60
2C
04
ENDCHAR
STARTCHAR a
ENCODING 97
SWIDTH 505 0
DWIDTH 10 0
BBX 10 10 0 0
BITMAP
02E000
016D00
000700
000280
1BFBC0
7407D0
9000D0
600050
395A90
06FE40
ENDCHAR
STARTCHAR b
ENCODING 98
SWIDTH 497 0
DWIDTH 10 0
BBX 10 13 0 0
BITMAP
500000
900000
A00000
600000
600000
300000
3AA400
2D6E00
2402C0
240090
1800A0
0E46D0
06FE40
ENDCHAR
STARTCHAR c
ENCODING 99
SWIDTH 449 0
DWIDTH 9 0
BBX 9 9 0 0
BITMAP
06F400
1D1C00
300400
600000
A00000
A00000
700000
2E4000
06FE40
ENDCHAR
STARTCHAR d
ENCODING 100
SWIDTH 524 0
DWIDTH 10 0
BBX 10 15 0 0
BITMAP
000500
000700
000740
000380
0002C0
0001C0
0BD1D0
2EAED0
7407D0
6001E0
A001E0
6003E0
700AA0
29B870
0B9000
ENDCHAR
STARTCHAR e
ENCODING 101
SWIDTH 515 0
DWIDTH 10 0
BBX 10 11 0 0
BITMAP
004000
0BB800
280C00
300900
601C00
A5B400
AA4000
600000
340000
0E5550
01BE40
ENDCHAR
STARTCHAR f
ENCODING 102
SWIDTH 376 0
DWIDTH 8 0
BBX 9 14 0 0
BITMAP
01FD00
034740
0901C0
0C0000
0C0000
0C0000
0C0000
1E5400
EFF800
070000
034000
01C000
00E000
007000
ENDCHAR
STARTCHAR g
ENCODING 103
SWIDTH 366 0
DWIDTH 7 0
BBX 11 19 -3 -10
BITMAP
000100
001F80
007090
00C0A0
0180A0
0280B0
0180F0
00FBF0
001970
000030
000034
000034
000024
500024
900034
700030
2E00A0
06FAD0
006A40
ENDCHAR
STARTCHAR h
ENCODING 104
SWIDTH 427 0
DWIDTH 9 0
BBX 9 14 -1 0
BITMAP
600000
300000
340000
280000
180000
1EF800
0F6E00
0C0300
0C0240
090180
090180
0A0180
0A0280
050240
ENDCHAR
STARTCHAR i
ENCODING 105
SWIDTH 174 0
DWIDTH 4 0
BBX 3 12 0 0
BITMAP
90
00
00
20
24
24
24
28
28
1C
1C
0C
ENDCHAR
STARTCHAR j
ENCODING 106
SWIDTH 200 0
DWIDTH 4 0
BBX 7 21 -2 -9
BITMAP
0500
0200
0000
0000
0140
0180
00C0
00D0
00E0
00A0
0070
0070
0030
0034
4024
C024
A024
7024
2824
0BB4
01E0
ENDCHAR
STARTCHAR k
ENCODING 107
SWIDTH 403 0
DWIDTH 8 0
BBX 8 12 0 0
BITMAP
8000
C000
9000
6024
6090
3240
3E00
3C00
3C00
3E00
36E5
306E
ENDCHAR
STARTCHAR l
ENCODING 108
SWIDTH 120 0
DWIDTH 2 0
BBX 2 11 0 0
BITMAP
50
60
60
60
60
70
70
70
70
60
60
ENDCHAR
STARTCHAR m
ENCODING 109
SWIDTH 750 0
DWIDTH 15 0
BBX 15 9 0 0
BITMAP
00000500
5B907F80
7D76D0E0
741F4070
700A0034
70060024
70070024
70020034
20000020
ENDCHAR
STARTCHAR n
ENCODING 110
SWIDTH 459 0
DWIDTH 9 0
BBX 9 9 0 0
BITMAP
02F400
6D5D00
740A00
700340
700280
700280
340180
240180
180180
ENDCHAR
STARTCHAR o
ENCODING 111
SWIDTH 487 0
DWIDTH 10 0
BBX 9 8 0 0
BITMAP
06F900
1E5B40
700180
9000C0
9000C0
6002C0
295F40
0BF800
ENDCHAR
STARTCHAR p
ENCODING 112
SWIDTH 520 0
DWIDTH 10 0
BBX 10 14 0 -7
BITMAP
06BE00
2E56C0
7400A0
B00070
B600B0
B6EBD0
745500
380000
380000
2C0000
1C0000
1D0000
0D0000
060000
ENDCHAR
STARTCHAR q
ENCODING 113
SWIDTH 412 0
DWIDTH 8 0
BBX 8 16 0 -6
BITMAP
06F4
1D1D
3409
600D
900D
901D
601C
341C
2EBC
06AC
000C
000C
000C
000D
000D
0009
ENDCHAR
STARTCHAR r
ENCODING 114
SWIDTH 346 0
DWIDTH 7 0
BBX 7 9 0 0
BITMAP
1BE4
B454
A000
6000
6000
3000
2400
1800
0800
ENDCHAR
STARTCHAR s
ENCODING 115
SWIDTH 514 0
DWIDTH 10 0
BBX 10 9 0 0
BITMAP
1BF400
341C00
700800
294000
06BE40
0001D0
5000A0
3901D0
0AFF40
ENDCHAR
STARTCHAR t
ENCODING 116
SWIDTH 328 0
DWIDTH 7 0
BBX 7 12 0 0
BITMAP
0600
0600
0600
0B00
BFF4
1B40
0700
0700
0700
0700
0300
0200
ENDCHAR
STARTCHAR u
ENCODING 117
SWIDTH 501 0
DWIDTH 10 0
BBX 10 10 0 0
BITMAP
500000
900200
900340
900340
600380
700380
280B80
1D68C0
07E0A0
000050
ENDCHAR
STARTCHAR v
ENCODING 118
SWIDTH 389 0
DWIDTH 8 0
BBX 8 8 0 0
BITMAP
4000
A009
341C
2824
0C30
0A60
03D0
0180
ENDCHAR
STARTCHAR w
ENCODING 119
SWIDTH 656 0
DWIDTH 13 0
BBX 13 9 0 0
BITMAP
10000000
60000000
A0040900
900D0300
900D0240
A00E0280
301F0380
29B6AB40
0BD0A900
ENDCHAR
STARTCHAR x
ENCODING 120
SWIDTH 448 0
DWIDTH 9 0
BBX 9 9 0 -1
BITMAP
800180
B00B40
2C2800
0BD000
03C000
09B000
142C00
200A00
000240
ENDCHAR
STARTCHAR y
ENCODING 121
SWIDTH 487 0
DWIDTH 10 0
BBX 10 19 0 -10
BITMAP
400040
900180
900180
A001C0
7000C0
3401D0
1803D0
0BAE90
019090
000050
000090
000090
000090
0000D0
1000C0
340180
1D0240
07AB00
006800
ENDCHAR
STARTCHAR z
ENCODING 122
SWIDTH 459 0
DWIDTH 9 0
BBX 9 11 0 0
BITMAP
054000
7EB400
501800
001800
002400
15B900
2BD400
034000
0A0000
1E5B80
0BF900
ENDCHAR
STARTCHAR braceleft
ENCODING 123
SWIDTH 393 0
DWIDTH 8 0
BBX 8 20 0 -2
BITMAP
01A8
0A59
3800
7000
9000
5000
3000
1D00
07E0
02F0
1E68
1028
0074
01D0
0A00
1800
2400
2800
1E05
07F9
ENDCHAR
STARTCHAR bar
ENCODING 124
SWIDTH 149 0
DWIDTH 3 0
BBX 3 13 0 0
BITMAP
80
90
60
30
30
24
24
24
24
24
24
24
24
ENDCHAR
STARTCHAR braceright
ENCODING 125
SWIDTH 440 0
DWIDTH 9 0
BBX 9 24 0 -5
BITMAP
6AA000
A56800
100D00
000D00
002800
00B000
028000
0A0000
090000
07FC00
065400
060000
034000
00D000
003400
001800
000900
000600
000300
000240
000340
D00A00
797C00
065000
ENDCHAR
STARTCHAR asciitilde
ENCODING 126
SWIDTH 402 0
DWIDTH 8 0
BBX 8 3 0 8
BITMAP
2909
62B8
5050
ENDCHAR
STARTCHAR nonbreakingspace
ENCODING 160
SWIDTH 375 0
DWIDTH 8 0
BBX 1 1 0 0
BITMAP
00
ENDCHAR
STARTCHAR exclamdown
ENCODING 161
SWIDTH 149 0
DWIDTH 3 0
BBX 3 14 0 -1
BITMAP
74
64
00
00
20
30
30
30
30
30
20
20
20
10
ENDCHAR
STARTCHAR cent
ENCODING 162
SWIDTH 449 0
DWIDTH 9 0
BBX 9 12 0 -1
BITMAP
004000
00C000
06E400
1DAC00
349800
609000
A09000
A09000
709000
3DA000
0BFE40
009000
ENDCHAR
STARTCHAR sterling
ENCODING 163
SWIDTH 758 0
DWIDTH 15 0
BBX 15 15 0 0
BITMAP
00000540
00002EE0
0000A024
00008008
00024000
00030000
005FFF00
07AF4100
00060000
00080000
00080000
00180000
6AB95000
BFFFF400
7E400000
ENDCHAR
STARTCHAR currency
ENCODING 164
SWIDTH 618 0
DWIDTH 12 0
BBX 12 11 0 0
BITMAP
500000
386F9D
0FE6F4
0A0024
0C0008
0C0008
090028
0600B0
0AEBD0
1C1470
140010
ENDCHAR
STARTCHAR yen
ENCODING 165
SWIDTH 389 0
DWIDTH 8 0
BBX 8 15 0 0
BITMAP
2000
3407
180D
0C28
0934
03A0
02D0
01C0
6AE4
0694
1690
2BE4
0280
0240
0340
ENDCHAR
STARTCHAR brokenbar
ENCODING 166
SWIDTH 117 0
DWIDTH 2 0
BBX 2 12 0 0
BITMAP
40
60
60
60
60
50
50
A0
A0
60
60
60
ENDCHAR
STARTCHAR section
ENCODING 167
SWIDTH 514 0
DWIDTH 10 0
BBX 10 14 0 0
BITMAP
004000
1BF900
280780
240080
1E5000
1FFF80
7400A0
700070
2955A0
06FFC0
0001D0
2000A0
2D41D0
06FF40
ENDCHAR
STARTCHAR dieresis
ENCODING 168
SWIDTH 397 0
DWIDTH 8 0
BBX 6 3 1 8
BITMAP
1040
B5D0
1040
ENDCHAR
STARTCHAR copyright
ENCODING 169
SWIDTH 667 0
DWIDTH 13 0
BBX 13 11 0 0
BITMAP
01FF9000
0A01B800
182E5D00
3491C700
61804280
628000C0
628000C0
35C000C0
2DBFF280
0B81AE00
01BF9000
ENDCHAR
STARTCHAR ordfeminine
ENCODING 170
SWIDTH 266 0
DWIDTH 5 0
BBX 5 6 0 5
BITMAP
0400
0600
1540
6680
4040
2A40
ENDCHAR
STARTCHAR guillemotleft
ENCODING 171
SWIDTH 755 0
DWIDTH 15 0
BBX 14 10 0 0
BITMAP
00000010
000001D0
00029A00
001E7400
00A68000
075E0000
2D3E5000
B91AFF80
6FF90180
00574000
ENDCHAR
STARTCHAR logicalnot
ENCODING 172
SWIDTH 369 0
DWIDTH 7 0
BBX 7 3 0 5
BITMAP
7FFC
000C
0018
ENDCHAR
STARTCHAR hyphen_
ENCODING 173
SWIDTH 375 0
DWIDTH 8 0
BBX 7 2 0 5
BITMAP
0550
7FB8
ENDCHAR
STARTCHAR registered
ENCODING 174
SWIDTH 708 0
DWIDTH 14 0
BBX 13 12 0 0
BITMAP
00550000
02ABE000
09007800
2AFA9A00
32107240
6060B180
607E80C0
307800C0
283640C0
1E209740
07D5B900
006A4000
ENDCHAR
STARTCHAR macron
ENCODING 175
SWIDTH 287 0
DWIDTH 6 0
BBX 6 2 0 9
BITMAP
2A90
6550
ENDCHAR
STARTCHAR degree
ENCODING 176
SWIDTH 254 0
DWIDTH 5 0
BBX 5 6 0 6
BITMAP
0400
2A00
4140
4140
8200
2900
ENDCHAR
STARTCHAR plusminus
ENCODING 177
SWIDTH 459 0
DWIDTH 9 0
BBX 9 10 0 0
BITMAP
010000
028000
018000
01D400
6FFF80
54D000
009000
00A000
1BFF80
140000
ENDCHAR
STARTCHAR twosuperior
ENCODING 178
SWIDTH 296 0
DWIDTH 6 0
BBX 5 7 0 4
BITMAP
0500
0940
0080
0080
0140
A600
6A80
ENDCHAR
STARTCHAR threesuperior
ENCODING 179
SWIDTH 204 0
DWIDTH 4 0
BBX 4 7 0 5
BITMAP
54
45
18
68
06
82
2A
ENDCHAR
STARTCHAR acute
ENCODING 180
SWIDTH 180 0
DWIDTH 4 0
BBX 3 3 0 8
BITMAP
08
74
90
ENDCHAR
STARTCHAR mu
ENCODING 181
SWIDTH 501 0
DWIDTH 10 0
BBX 10 11 0 -1
BITMAP
100000
900100
900340
900340
A00380
B00380
B40B80
BD1EC0
9BF4D0
904060
900000
ENDCHAR
STARTCHAR paragraph
ENCODING 182
SWIDTH 413 0
DWIDTH 8 0
BBX 8 12 0 -1
BITMAP
0050
1FFC
7FFD
BFE9
BFE9
2ADA
009A
009A
009A
0099
0099
0004
ENDCHAR
STARTCHAR periodcentered
ENCODING 183
SWIDTH 212 0
DWIDTH 4 0
BBX 3 3 1 3
BITMAP
60
F4
50
ENDCHAR
STARTCHAR cedilla
ENCODING 184
SWIDTH 445 0
DWIDTH 9 0
BBX 6 7 3 -6
BITMAP
4000
9000
6000
1A40
00C0
90D0
2E80
ENDCHAR
STARTCHAR onesuperior
ENCODING 185
SWIDTH 197 0
DWIDTH 4 0
BBX 4 8 0 4
BITMAP
01
06
0D
2D
9C
4C
08
08
ENDCHAR
STARTCHAR ordmasculine
ENCODING 186
SWIDTH 254 0
DWIDTH 5 0
BBX 5 6 0 6
BITMAP
0400
2A00
4140
4140
8200
2900
ENDCHAR
STARTCHAR guillemotright
ENCODING 187
SWIDTH 659 0
DWIDTH 13 0
BBX 13 10 0 0
BITMAP
00240000
741E4000
1F96F900
01BE1B40
000A0B00
002D2D00
00A1E000
07874000
2D2D0000
60100000
ENDCHAR
STARTCHAR onequarter
ENCODING 188
SWIDTH 626 0
DWIDTH 13 0
BBX 12 15 0 0
BITMAP
000800
010800
021800
071400
1E2000
663000
456000
055100
049500
00C801
018809
02481D
0307EC
060009
050009
ENDCHAR
STARTCHAR onehalf
ENCODING 189
SWIDTH 566 0
DWIDTH 11 0
BBX 11 15 0 -1
BITMAP
000800
024800
020800
071800
1F2400
663000
862190
066220
059020
05C020
018020
025060
037EC0
061AB4
050000
ENDCHAR
STARTCHAR threequarters
ENCODING 190
SWIDTH 566 0
DWIDTH 11 0
BBX 11 15 0 -2
BITMAP
000800
680800
020800
191800
291400
022500
917500
2A6808
009818
008578
00C298
018008
024008
030000
020000
ENDCHAR
STARTCHAR questiondown
ENCODING 191
SWIDTH 272 0
DWIDTH 5 0
BBX 6 15 0 0
BITMAP
7000
1000
0000
0000
0000
6900
1740
0700
0E00
2800
7400
6000
6000
3450
0B90
ENDCHAR
STARTCHAR Agrave
ENCODING 192
SWIDTH 562 0
DWIDTH 11 0
BBX 11 18 0 0
BITMAP
00A000
002800
001400
02AD00
090740
1801C0
240090
200060
200030
200030
300024
7AA974
755568
300018
300018
240028
280028
180024
ENDCHAR
STARTCHAR Aacute
ENCODING 193
SWIDTH 562 0
DWIDTH 11 0
BBX 11 19 0 0
BITMAP
006000
01D000
030000
001000
02AD00
090740
1801C0
240090
200060
200030
200030
300024
7AA974
755568
300018
300018
240028
280028
180024
ENDCHAR
STARTCHAR Acircumflex
ENCODING 194
SWIDTH 562 0
DWIDTH 11 0
BBX 11 20 0 0
BITMAP
005000
00B400
01FC00
074E00
041500
02AD00
090740
1801C0
240090
200060
200030
200030
300024
7AA974
755568
300018
300018
240028
280028
180024
ENDCHAR
STARTCHAR Atilde
ENCODING 195
SWIDTH 562 0
DWIDTH 11 0
BBX 11 18 0 0
BITMAP
0A4140
18BA00
141400
02AD00
090740
1801C0
240090
200060
200030
200030
300024
7AA974
755568
300018
300018
240028
280028
180024
ENDCHAR
STARTCHAR Adieresis
ENCODING 196
SWIDTH 562 0
DWIDTH 11 0
BBX 11 19 0 0
BITMAP
010500
078E00
010400
001000
02AD00
090740
1801C0
240090
200060
200030
200030
300024
7AA974
755568
300018
300018
240028
280028
180024
ENDCHAR
STARTCHAR Aring
ENCODING 197
SWIDTH 562 0
DWIDTH 11 0
BBX 11 19 0 0
BITMAP
001000
01A800
020800
01A400
02AD00
090740
1801C0
240090
200060
200030
200030
300024
7AA974
755568
300018
300018
240028
280028
180024
ENDCHAR
STARTCHAR AE
ENCODING 198
SWIDTH 960 0
DWIDTH 19 0
BBX 19 16 0 0
BITMAP
0010000000
02AD000000
0907400000
1801C55550
24009EAAA4
20006C0000
20003C0000
20003C0000
30002D5AE0
7AA97EA500
7555680000
3000180000
3000180000
2400180000
28002D56A4
18002AFFA0
ENDCHAR
STARTCHAR Ccedilla
ENCODING 199
SWIDTH 515 0
DWIDTH 10 0
BBX 10 19 0 -6
BITMAP
002E00
01E600
074500
180000
200000
600000
500000
900000
900000
600000
340000
2D5BD0
0BE900
020000
034000
01A800
000A00
064600
01E900
ENDCHAR
STARTCHAR Egrave
ENCODING 200
SWIDTH 524 0
DWIDTH 10 0
BBX 10 16 0 0
BITMAP
00D000
007400
000000
155500
7FAA80
600000
600000
600000
756B80
BA9400
600000
900000
900000
900000
655A90
2FFE80
ENDCHAR
STARTCHAR Eacute
ENCODING 201
SWIDTH 524 0
DWIDTH 10 0
BBX 10 16 0 0
BITMAP
002400
00D000
024000
155500
7FAA80
600000
600000
600000
756B80
BA9400
600000
900000
900000
900000
655A90
2FFE80
ENDCHAR
STARTCHAR Ecircumflex
ENCODING 202
SWIDTH 524 0
DWIDTH 10 0
BBX 10 18 0 0
BITMAP
002000
007800
00FD00
038B00
010100
155500
7FAA80
600000
600000
600000
756B80
BA9400
600000
900000
900000
900000
655A90
2FFE80
ENDCHAR
STARTCHAR Edieresis
ENCODING 203
SWIDTH 524 0
DWIDTH 10 0
BBX 10 16 0 0
BITMAP
010400
079E00
010400
155500
7FAA80
600000
600000
600000
756B80
BA9400
600000
900000
900000
900000
655A90
2FFE80
ENDCHAR
STARTCHAR Igrave
ENCODING 204
SWIDTH 167 0
DWIDTH 3 0
BBX 4 15 -1 0
BITMAP
74
1D
00
00
20
28
18
0C
09
09
0A
06
07
07
03
ENDCHAR
STARTCHAR Iacute
ENCODING 205
SWIDTH 167 0
DWIDTH 3 0
BBX 4 15 -1 0
BITMAP
05
28
60
00
20
28
18
0C
09
09
0A
06
07
07
03
ENDCHAR
STARTCHAR Icircumflex
ENCODING 206
SWIDTH 167 0
DWIDTH 3 0
BBX 6 18 -1 0
BITMAP
0500
0F00
2F80
B1D0
4050
0000
0000
2000
2800
1800
0C00
0900
0900
0A00
0600
0700
0700
0300
ENDCHAR
STARTCHAR Idieresis
ENCODING 207
SWIDTH 167 0
DWIDTH 3 0
BBX 5 14 -2 0
BITMAP
5140
F3C0
5140
0800
0A00
0600
0300
0240
0240
0280
0180
01C0
01C0
00C0
ENDCHAR
STARTCHAR Eth
ENCODING 208
SWIDTH 741 0
DWIDTH 15 0
BBX 15 14 0 -1
BITMAP
05940000
7AAF9000
001C7800
000C0B40
000D01C0
000A50A0
007FF830
00160034
00070034
00070070
000701E0
00250B80
002FF900
00004000
ENDCHAR
STARTCHAR Ntilde
ENCODING 209
SWIDTH 609 0
DWIDTH 12 0
BBX 12 14 0 0
BITMAP
019050
061E80
020100
200000
300060
340074
380028
3C001C
7D0009
67000A
62800A
60E00D
703EB8
600A90
ENDCHAR
STARTCHAR Ograve
ENCODING 210
SWIDTH 609 0
DWIDTH 12 0
BBX 12 14 0 0
BITMAP
002800
000A00
000000
000000
069000
1EAE00
3002D0
900074
90001C
900009
70000A
28000D
0F41B8
02FE90
ENDCHAR
STARTCHAR Oacute
ENCODING 211
SWIDTH 609 0
DWIDTH 12 0
BBX 12 14 0 0
BITMAP
000800
007400
009000
000000
069000
1EAE00
3002D0
900074
90001C
900009
70000A
28000D
0F41B8
02FE90
ENDCHAR
STARTCHAR Ocircumflex
ENCODING 212
SWIDTH 609 0
DWIDTH 12 0
BBX 12 16 0 0
BITMAP
008000
01E000
03F400
0E2C00
040400
000000
069000
1EAE00
3002D0
900074
90001C
900009
70000A
28000D
0F41B8
02FE90
ENDCHAR
STARTCHAR Otilde
ENCODING 213
SWIDTH 609 0
DWIDTH 12 0
BBX 12 13 0 0
BITMAP
064140
187A00
040400
069000
1EAE00
3002D0
900074
90001C
900009
70000A
28000D
0F41B8
02FE90
ENDCHAR
STARTCHAR Odieresis
ENCODING 214
SWIDTH 609 0
DWIDTH 12 0
BBX 12 14 0 0
BITMAP
004100
01D780
004100
000000
069000
1EAE00
3002D0
900074
90001C
900009
70000A
28000D
0F41B8
02FE90
ENDCHAR
STARTCHAR multiply
ENCODING 215
SWIDTH 448 0
DWIDTH 9 0
BBX 6 6 1 1
BITMAP
4010
A0A0
2F40
0F00
26C0
6040
ENDCHAR
STARTCHAR Oslash
ENCODING 216
SWIDTH 609 0
DWIDTH 12 0
BBX 12 15 0 -2
BITMAP
000200
000300
000600
069A00
1EAE00
301ED0
902874
90341C
907009
70A00A
28D00D
0FC1B8
03FE90
070000
050000
ENDCHAR
STARTCHAR Ugrave
ENCODING 217
SWIDTH 571 0
DWIDTH 11 0
BBX 11 14 0 0
BITMAP
003400
001D00
000000
240040
6000D0
5000D0
500090
6000A0
600060
300070
240074
1801F8
0E5A5C
02F404
ENDCHAR
STARTCHAR Uacute
ENCODING 218
SWIDTH 571 0
DWIDTH 11 0
BBX 11 14 0 0
BITMAP
001800
007000
00C000
240040
6000D0
5000D0
500090
6000A0
600060
300070
240074
1801F8
0E5A5C
02F404
ENDCHAR
STARTCHAR Ucircumflex
ENCODING 219
SWIDTH 571 0
DWIDTH 11 0
BBX 11 18 0 0
BITMAP
001400
003C00
00BE00
02C740
010100
000000
000000
240040
6000D0
5000D0
500090
6000A0
600060
300070
240074
1801F8
0E5A5C
02F404
ENDCHAR
STARTCHAR Udieresis
ENCODING 220
SWIDTH 571 0
DWIDTH 11 0
BBX 11 14 0 0
BITMAP
014100
02CB40
014100
240040
6000D0
5000D0
500090
6000A0
600060
300070
240074
1801F8
0E5A5C
02F404
ENDCHAR
STARTCHAR Yacute
ENCODING 221
SWIDTH 403 0
DWIDTH 8 0
BBX 8 18 0 -1
BITMAP
0014
00A0
0180
0000
8000
A006
340A
1D0D
07AC
01B8
0034
0070
00A0
0090
00C0
00C0
00C0
0040
ENDCHAR
STARTCHAR Thorn
ENCODING 222
SWIDTH 497 0
DWIDTH 10 0
BBX 9 15 1 -3
BITMAP
D00000
D00000
D00000
C00000
C00000
EA9000
F5B800
900B00
900240
A00280
B91B40
ABF900
900000
600000
600000
ENDCHAR
STARTCHAR germandbls
ENCODING 223
SWIDTH 590 0
DWIDTH 12 0
BBX 12 17 0 -3
BITMAP
2E9000
79B800
700D00
700900
701C00
31F400
34BE00
2407C0
240074
14001C
18000D
18001D
186AB8
185540
1C0000
2C0000
180000
ENDCHAR
STARTCHAR agrave
ENCODING 224
SWIDTH 505 0
DWIDTH 10 0
BBX 10 13 0 0
BITMAP
018000
00B000
001000
02E000
016D00
000700
000280
1BFBC0
7407D0
9000D0
600050
395A90
06FE40
ENDCHAR
STARTCHAR aacute
ENCODING 225
SWIDTH 505 0
DWIDTH 10 0
BBX 10 14 0 0
BITMAP
002000
01D000
024000
000000
02E000
016D00
000700
000280
1BFBC0
7407D0
9000D0
600050
395A90
06FE40
ENDCHAR
STARTCHAR acircumflex
ENCODING 226
SWIDTH 505 0
DWIDTH 10 0
BBX 10 15 0 0
BITMAP
005000
00B400
01FD00
074A00
050100
02E000
016D00
000700
000280
1BFBC0
7407D0
9000D0
600050
395A90
06FE40
ENDCHAR
STARTCHAR atilde
ENCODING 227
SWIDTH 505 0
DWIDTH 10 0
BBX 10 14 0 0
BITMAP
0A4240
28AD00
141400
000000
02E000
016D00
000700
000280
1BFBC0
7407D0
9000D0
600050
395A90
06FE40
ENDCHAR
STARTCHAR adieresis
ENCODING 228
SWIDTH 505 0
DWIDTH 10 0
BBX 10 13 0 0
BITMAP
010400
075E00
010400
02E000
016D00
000700
000280
1BFBC0
7407D0
9000D0
600050
395A90
06FE40
ENDCHAR
STARTCHAR aring
ENCODING 229
SWIDTH 505 0
DWIDTH 10 0
BBX 10 13 0 0
BITMAP
01A400
020800
026400
02F000
016D00
000700
000280
1BFBC0
7407D0
9000D0
600050
395A90
06FE40
ENDCHAR
STARTCHAR ae
ENCODING 230
SWIDTH 881 0
DWIDTH 18 0
BBX 17 11 0 -1
BITMAP
02E006E000
016D292800
0007600C00
0002D00C00
1BFBD07400
7407EFD000
9000D00000
6000600000
395AB90000
06FE4BEB80
0000005400
ENDCHAR
STARTCHAR ccedilla
ENCODING 231
SWIDTH 449 0
DWIDTH 9 0
BBX 9 15 0 -6
BITMAP
06A400
1D1C00
340800
600000
A00000
A00000
700000
2D4000
07FE40
020000
024000
00A800
000600
074600
01F800
ENDCHAR
STARTCHAR egrave
ENCODING 232
SWIDTH 515 0
DWIDTH 10 0
BBX 10 13 0 0
BITMAP
024000
00D000
005000
0BB800
280C00
300900
601C00
A5B400
AA4000
600000
340000
0E5550
01BE40
ENDCHAR
STARTCHAR eacute
ENCODING 233
SWIDTH 515 0
DWIDTH 10 0
BBX 10 14 0 0
BITMAP
006000
01D000
034000
014000
0BB800
280C00
300900
601C00
A5B400
AA4000
600000
340000
0E5550
01BE40
ENDCHAR
STARTCHAR ecircumflex
ENCODING 234
SWIDTH 515 0
DWIDTH 10 0
BBX 10 15 0 0
BITMAP
001000
007400
01FD00
074A00
014100
0BB800
280C00
300900
601C00
A5B400
AA4000
600000
340000
0E5550
01BE40
ENDCHAR
STARTCHAR edieresis
ENCODING 235
SWIDTH 515 0
DWIDTH 10 0
BBX 10 13 0 0
BITMAP
050400
0B2D00
015400
0BB800
280C00
300900
601C00
A5B400
AA4000
600000
340000
0E5550
01BE40
ENDCHAR
STARTCHAR igrave
ENCODING 236
SWIDTH 174 0
DWIDTH 4 0
BBX 3 12 0 0
BITMAP
60
28
04
20
24
24
24
28
28
1C
1C
0C
ENDCHAR
STARTCHAR iacute
ENCODING 237
SWIDTH 174 0
DWIDTH 4 0
BBX 3 13 0 0
BITMAP
04
24
D0
40
20
24
24
24
28
28
1C
1C
0C
ENDCHAR
STARTCHAR icircumflex
ENCODING 238
SWIDTH 174 0
DWIDTH 4 0
BBX 6 15 -1 0
BITMAP
0500
0F00
2F80
B1D0
4050
0000
0800
0900
0900
0900
0A00
0A00
0700
0700
0300
ENDCHAR
STARTCHAR idieresis
ENCODING 239
SWIDTH 174 0
DWIDTH 4 0
BBX 5 12 -1 0
BITMAP
5180
F2C0
0000
0800
0900
0900
0900
0A00
0A00
0700
0700
0300
ENDCHAR
STARTCHAR eth
ENCODING 240
SWIDTH 407 0
DWIDTH 8 0
BBX 8 12 0 -1
BITMAP
2500
6B81
01FF
07E8
010C
0AAE
381A
6003
6006
741D
1BF8
0040
ENDCHAR
STARTCHAR ntilde
ENCODING 241
SWIDTH 459 0
DWIDTH 9 0
BBX 9 13 0 0
BITMAP
290500
62E800
501000
000000
02F400
6D5D00
740A00
700340
700280
700280
340180
240180
180180
ENDCHAR
STARTCHAR ograve
ENCODING 242
SWIDTH 487 0
DWIDTH 10 0
BBX 9 11 0 0
BITMAP
00D000
007400
000000
06F900
1E5B40
700180
9000C0
9000C0
6002C0
295F40
0BF800
ENDCHAR
STARTCHAR oacute
ENCODING 243
SWIDTH 487 0
DWIDTH 10 0
BBX 9 12 0 0
BITMAP
002000
01D000
024000
000000
06F900
1E5B40
700180
9000C0
9000C0
6002C0
295F40
0BF800
ENDCHAR
STARTCHAR ocircumflex
ENCODING 244
SWIDTH 487 0
DWIDTH 10 0
BBX 9 14 0 0
BITMAP
005000
00F000
02F800
0B1D00
040400
000000
06F900
1E5B40
700180
9000C0
9000C0
6002C0
295F40
0BF800
ENDCHAR
STARTCHAR otilde
ENCODING 245
SWIDTH 487 0
DWIDTH 10 0
BBX 9 11 0 0
BITMAP
0A4140
18BA00
141400
06F900
1E5B40
700180
9000C0
9000C0
6002C0
295F40
0BF800
ENDCHAR
STARTCHAR odieresis
ENCODING 246
SWIDTH 487 0
DWIDTH 10 0
BBX 9 11 0 0
BITMAP
010400
0B5D00
010400
06F900
1E5B40
700180
9000C0
9000C0
6002C0
295F40
0BF800
ENDCHAR
STARTCHAR divide
ENCODING 247
SWIDTH 335 0
DWIDTH 7 0
BBX 5 6 1 1
BITMAP
0800
0800
1500
EA80
0400
0400
ENDCHAR
STARTCHAR oslash
ENCODING 248
SWIDTH 487 0
DWIDTH 10 0
BBX 9 9 0 0
BITMAP
001A00
07FE00
292B40
6071C0
90D0C0
9281C0
670280
2E1F40
2BF800
ENDCHAR
STARTCHAR ugrave
ENCODING 249
SWIDTH 501 0
DWIDTH 10 0
BBX 10 13 0 0
BITMAP
074000
01D000
000000
500000
900200
900340
900340
600380
700380
280B80
1D68C0
07E0A0
000050
ENDCHAR
STARTCHAR uacute
ENCODING 250
SWIDTH 501 0
DWIDTH 10 0
BBX 10 14 0 0
BITMAP
002000
01D000
024000
000000
500000
900200
900340
900340
600380
700380
280B80
1D68C0
07E0A0
000050
ENDCHAR
STARTCHAR ucircumflex
ENCODING 251
SWIDTH 501 0
DWIDTH 10 0
BBX 10 15 0 0
BITMAP
005000
00B400
01FC00
074E00
050100
500000
900200
900340
900340
600380
700380
280B80
1D68C0
07E0A0
000050
ENDCHAR
STARTCHAR udieresis
ENCODING 252
SWIDTH 501 0
DWIDTH 10 0
BBX 10 13 0 0
BITMAP
051400
0F2C00
051400
500000
900200
900340
900340
600380
700380
280B80
1D68C0
07E0A0
000050
ENDCHAR
STARTCHAR yacute
ENCODING 253
SWIDTH 487 0
DWIDTH 10 0
BBX 10 23 0 -10
BITMAP
002000
01D000
034000
000000
400040
900180
900180
A001C0
7000C0
3401D0
1803D0
0BAE90
019090
000050
000090
000090
000090
0000D0
1000C0
340180
1D0240
07AB00
006800
ENDCHAR
STARTCHAR thorn
ENCODING 254
SWIDTH 520 0
DWIDTH 10 0
BBX 10 14 0 -4
BITMAP
300000
300000
605400
6BEB80
7801E0
700070
700070
7A55E0
7AFE80
700000
600000
600000
600000
200000
ENDCHAR
STARTCHAR ydieresis
ENCODING 255
SWIDTH 487 0
DWIDTH 10 0
BBX 10 22 0 -10
BITMAP
051400
0F2C00
050400
400040
900180
900180
A001C0
7000C0
3401D0
1803D0
0BAE90
019090
000050
000090
000090
000090
0000D0
1000C0
340180
1D0240
07AB00
006800
ENDCHAR
STARTCHAR Amacron
ENCODING 256
SWIDTH 562 0
DWIDTH 11 0
BBX 11 18 0 0
BITMAP
02A900
065500
001000
02AD00
090740
1801C0
240090
200060
200030
200030
300024
7AA974
755568
300018
300018
240028
280028
180024
ENDCHAR
STARTCHAR amacron
ENCODING 257
SWIDTH 505 0
DWIDTH 10 0
BBX 10 13 0 0
BITMAP
06A800
065500
000000
02E000
016D00
000700
000280
1BFBC0
7407D0
9000D0
600050
395A90
06FE40
ENDCHAR
STARTCHAR Abreve
ENCODING 258
SWIDTH 562 0
DWIDTH 11 0
BBX 11 19 0 0
BITMAP
004500
00B800
000000
001000
02AD00
090740
1801C0
240090
200060
200030
200030
300024
7AA974
755568
300018
300018
240028
280028
180024
ENDCHAR
STARTCHAR abreve
ENCODING 259
SWIDTH 505 0
DWIDTH 10 0
BBX 10 13 0 0
BITMAP
011400
02E000
000000
02E000
016D00
000700
000280
1BFBC0
7407D0
9000D0
600050
395A90
06FE40
ENDCHAR
STARTCHAR Aogonek
ENCODING 260
SWIDTH 562 0
DWIDTH 11 0
BBX 11 19 0 -3
BITMAP
001000
02AD00
090740
1801C0
240090
200060
200030
200030
300024
7AA974
755568
300018
300018
240028
280028
1800B4
000280
000240
0001A8
ENDCHAR
STARTCHAR aogonek
ENCODING 261
SWIDTH 505 0
DWIDTH 10 0
BBX 10 13 0 -3
BITMAP
02E000
016D00
000700
000280
1BFBC0
7407D0
9000D0
600050
395A90
06FE40
001800
001D40
000140
ENDCHAR
STARTCHAR Cacute
ENCODING 262
SWIDTH 515 0
DWIDTH 10 0
BBX 10 16 0 0
BITMAP
000800
007400
009000
006E00
01E600
074500
180000
200000
600000
500000
900000
900000
600000
340000
2D5BD0
0BE900
ENDCHAR
STARTCHAR cacute
ENCODING 263
SWIDTH 449 0
DWIDTH 9 0
BBX 9 13 0 0
BITMAP
002400
00A000
028000
000000
06F400
1D1C00
300400
600000
A00000
A00000
700000
2E4000
06FE40
ENDCHAR
STARTCHAR Ccircumflex
ENCODING 264
SWIDTH 515 0
DWIDTH 10 0
BBX 10 18 0 0
BITMAP
001000
007400
01FD00
074A00
010100
002E00
01E600
074500
180000
200000
600000
500000
900000
900000
600000
340000
2D5BD0
0BE900
ENDCHAR
STARTCHAR ccircumflex
ENCODING 265
SWIDTH 449 0
DWIDTH 9 0
BBX 9 15 0 0
BITMAP
008000
00E000
02F800
0A1C00
040400
000000
06F400
1D1C00
300400
600000
A00000
A00000
700000
2E4000
06FE40
ENDCHAR
STARTCHAR Cdotaccent
ENCODING 266
SWIDTH 515 0
DWIDTH 10 0
BBX 10 16 0 0
BITMAP
006000
002000
000000
002E00
01E600
074500
180000
200000
600000
500000
900000
900000
600000
340000
2D5BD0
0BE900
ENDCHAR
STARTCHAR cdotaccent
ENCODING 267
SWIDTH 449 0
DWIDTH 9 0
BBX 9 11 0 0
BITMAP
01C000
008000
06F400
1D1C00
300400
600000
A00000
A00000
700000
2E4000
06FE40
ENDCHAR
STARTCHAR Ccaron
ENCODING 268
SWIDTH 515 0
DWIDTH 10 0
BBX 10 16 0 0
BITMAP
019780
002D00
000000
002E00
01E600
074500
180000
200000
600000
500000
900000
900000
600000
340000
2D5BD0
0BE900
ENDCHAR
STARTCHAR ccaron
ENCODING 269
SWIDTH 449 0
DWIDTH 9 0
BBX 9 12 0 0
BITMAP
0A6C00
01E000
000000
06F400
1D1C00
300400
600000
A00000
A00000
700000
2E4000
06FE40
ENDCHAR
STARTCHAR Dcaron
ENCODING 270
SWIDTH 741 0
DWIDTH 15 0
BBX 15 16 0 -1
BITMAP
0029B000
00078000
05950000
7AAF9000
000C7800
000D0B40
000901C0
000900A0
00060030
00060034
00070034
00070070
000701E0
00240B80
002FF900
00004000
ENDCHAR
STARTCHAR dcaron
ENCODING 271
SWIDTH 582 0
DWIDTH 12 0
BBX 12 15 0 0
BITMAP
000504
00070C
00074D
00038D
0002C9
0001C0
0BD1D0
2EAED0
7407D0
6001E0
A001E0
6003E0
700AA0
29B870
0B9000
ENDCHAR
STARTCHAR Dcroat
ENCODING 272
SWIDTH 741 0
DWIDTH 15 0
BBX 15 14 0 -1
BITMAP
05940000
7AAF9000
000C7800
000D0B40
000901C0
000900A0
006F8030
00AB4034
00070034
00070070
000701E0
00240B80
002FF900
00004000
ENDCHAR
STARTCHAR dcroat
ENCODING 273
SWIDTH 524 0
DWIDTH 10 0
BBX 11 15 0 0
BITMAP
000500
000700
000740
006BE4
00A6D4
0001C0
0BD1D0
2EAED0
7407D0
6001E0
A001E0
6003E0
700AA0
29B870
0B9000
ENDCHAR
STARTCHAR Emacron
ENCODING 274
SWIDTH 524 0
DWIDTH 10 0
BBX 10 15 0 0
BITMAP
02A900
065500
155500
7FAA80
600000
600000
600000
756B80
BA9400
600000
900000
900000
900000
655A90
2FFE80
ENDCHAR
STARTCHAR emacron
ENCODING 275
SWIDTH 515 0
DWIDTH 10 0
BBX 10 13 0 0
BITMAP
02A900
065500
004000
0BB800
280C00
300900
601C00
A5B400
AA4000
600000
340000
0E5550
01BE40
ENDCHAR
STARTCHAR Ebreve
ENCODING 276
SWIDTH 524 0
DWIDTH 10 0
BBX 10 16 0 0
BITMAP
020800
01A400
000000
155500
7FAA80
600000
600000
600000
756B80
BA9400
600000
900000
900000
900000
655A90
2FFE80
ENDCHAR
STARTCHAR ebreve
ENCODING 277
SWIDTH 515 0
DWIDTH 10 0
BBX 10 14 0 0
BITMAP
004500
00B800
000000
004000
0BB800
280C00
300900
601C00
A5B400
AA4000
600000
340000
0E5550
01BE40
ENDCHAR
STARTCHAR Edotaccent
ENCODING 278
SWIDTH 524 0
DWIDTH 10 0
BBX 10 15 0 0
BITMAP
009000
005000
155500
7FAA80
600000
600000
600000
756B80
BA9400
600000
900000
900000
900000
655A90
2FFE80
ENDCHAR
STARTCHAR edotaccent
ENCODING 279
SWIDTH 515 0
DWIDTH 10 0
BBX 10 13 0 0
BITMAP
01C000
008000
004000
0BB800
280C00
300900
601C00
A5B400
AA4000
600000
340000
0E5550
01BE40
ENDCHAR
STARTCHAR Eogonek
ENCODING 280
SWIDTH 524 0
DWIDTH 10 0
BBX 10 16 0 -3
BITMAP
155500
7FAA80
600000
600000
600000
756B80
BA9400
600000
900000
900000
900000
655A90
2FFF80
002800
002400
001A80
ENDCHAR
STARTCHAR eogonek
ENCODING 281
SWIDTH 515 0
DWIDTH 10 0
BBX 10 14 0 -3
BITMAP
004000
0BB800
280C00
300900
601C00
A5B400
AA4000
600000
340000
0E5550
01BE40
003400
003400
001A80
ENDCHAR
STARTCHAR Ecaron
ENCODING 282
SWIDTH 524 0
DWIDTH 10 0
BBX 10 15 0 0
BITMAP
029A00
007800
155500
7FAA80
600000
600000
600000
756B80
BA9400
600000
900000
900000
900000
655A90
2FFE80
ENDCHAR
STARTCHAR ecaron
ENCODING 283
SWIDTH 515 0
DWIDTH 10 0
BBX 10 14 0 0
BITMAP
069A00
00B800
000000
004000
0BB800
280C00
300900
601C00
A5B400
AA4000
600000
340000
0E5550
01BE40
ENDCHAR
STARTCHAR Gcircumflex
ENCODING 284
SWIDTH 571 0
DWIDTH 11 0
BBX 11 18 0 -2
BITMAP
000200
000780
000FD0
0038B0
001010
000150
002EB4
01D000
0A0000
180000
343AA4
601568
600028
300038
2D56F8
06E928
00002C
000004
ENDCHAR
STARTCHAR gcircumflex
ENCODING 285
SWIDTH 366 0
DWIDTH 7 0
BBX 11 25 -3 -10
BITMAP
000500
000F00
002F80
00B1D0
004040
000000
000100
001F80
007090
00C0A0
0180A0
0280B0
0180F0
00FBF0
001970
000030
000034
000034
000024
500024
900034
700030
2E00A0
06FAD0
006A40
ENDCHAR
STARTCHAR Gbreve
ENCODING 286
SWIDTH 571 0
DWIDTH 11 0
BBX 11 15 0 -2
BITMAP
004500
00B800
000150
002EB4
01D000
0A0000
180000
343AA4
601568
600028
300038
2D56F8
06E928
00002C
000004
ENDCHAR
STARTCHAR gbreve
ENCODING 287
SWIDTH 366 0
DWIDTH 7 0
BBX 11 21 -3 -10
BITMAP
001140
002E00
000100
001F80
007090
00C0A0
0180A0
0280B0
0180F0
00FBF0
001970
000030
000034
000034
000024
500024
900034
700030
2E00A0
06FAD0
006A40
ENDCHAR
STARTCHAR Gdotaccent
ENCODING 288
SWIDTH 571 0
DWIDTH 11 0
BBX 11 15 0 -2
BITMAP
000900
000500
000150
002EB4
01D000
0A0000
180000
343AA4
601568
600028
300038
2D56F8
06E928
00002C
000004
ENDCHAR
STARTCHAR gdotaccent
ENCODING 289
SWIDTH 366 0
DWIDTH 7 0
BBX 11 21 -3 -10
BITMAP
000C00
000800
000100
001F80
007090
00C0A0
0180A0
0280B0
0180F0
00FBF0
001970
000030
000034
000034
000024
500024
900034
700030
2E00A0
06FAD0
006A40
ENDCHAR
STARTCHAR Gcommaaccent
ENCODING 290
SWIDTH 571 0
DWIDTH 11 0
BBX 11 18 0 -7
BITMAP
000150
002EB4
01D000
0A0000
180000
343AA4
601568
600028
300038
2D56F8
06E928
00002C
000004
003400
002400
002400
003000
001000
ENDCHAR
STARTCHAR gcommaaccent
ENCODING 291
SWIDTH 366 0
DWIDTH 7 0
BBX 11 28 -3 -10
BITMAP
000400
000C00
000D00
000D00
000900
000000
000000
000000
000000
000100
001F80
007090
00C0A0
0180A0
0280B0
0180F0
00FBF0
001970
000030
000034
000034
000024
500024
900034
700030
2E00A0
06FAD0
006A40
ENDCHAR
STARTCHAR Hcircumflex
ENCODING 292
SWIDTH 524 0
DWIDTH 10 0
BBX 10 19 0 0
BITMAP
001000
007400
01FD00
074A00
010100
000040
500090
600090
600090
300090
3000D0
3007D0
34B990
3F9090
780090
280090
1800A0
180060
040060
ENDCHAR
STARTCHAR hcircumflex
ENCODING 293
SWIDTH 427 0
DWIDTH 9 0
BBX 9 16 -1 0
BITMAP
001000
003800
60BE00
328700
350100
280000
180000
1EF800
0F6E00
0C0300
0C0240
090180
090180
0A0180
0A0280
050240
ENDCHAR
STARTCHAR hbar
ENCODING 295
SWIDTH 427 0
DWIDTH 9 0
BBX 10 14 -2 0
BITMAP
180000
0C0000
0D0000
7FD000
560000
07BE00
03DB80
0300C0
030090
024060
024060
028060
0280A0
014090
ENDCHAR
STARTCHAR Itilde
ENCODING 296
SWIDTH 167 0
DWIDTH 3 0
BBX 8 14 -2 0
BITMAP
2909
92B4
5050
0800
0A00
0600
0300
0240
0240
0280
0180
01C0
01C0
00C0
ENDCHAR
STARTCHAR itilde
ENCODING 297
SWIDTH 174 0
DWIDTH 4 0
BBX 7 13 -1 0
BITMAP
6918
C2E0
4000
0000
0800
0900
0900
0900
0A00
0A00
0700
0700
0300
ENDCHAR
STARTCHAR imacron
ENCODING 299
SWIDTH 174 0
DWIDTH 4 0
BBX 5 12 -1 0
BITMAP
BFC0
5040
0000
0800
0900
0900
0900
0A00
0A00
0700
0700
0300
ENDCHAR
STARTCHAR Ibreve
ENCODING 300
SWIDTH 167 0
DWIDTH 3 0
BBX 4 15 0 0
BITMAP
86
79
00
00
80
A0
60
30
24
24
28
18
1C
1C
0C
ENDCHAR
STARTCHAR ibreve
ENCODING 301
SWIDTH 174 0
DWIDTH 4 0
BBX 5 12 -1 0
BITMAP
5240
2A00
0000
0800
0900
0900
0900
0A00
0A00
0700
0700
0300
ENDCHAR
STARTCHAR Iogonek
ENCODING 302
SWIDTH 167 0
DWIDTH 3 0
BBX 4 14 0 -3
BITMAP
80
A0
60
30
24
24
28
18
1C
1C
2C
90
D0
6A
ENDCHAR
STARTCHAR iogonek
ENCODING 303
SWIDTH 174 0
DWIDTH 4 0
BBX 5 15 -1 -3
BITMAP
2400
0000
0000
0800
0900
0900
0900
0A00
0A00
0700
0700
1B00
3400
7000
2A40
ENDCHAR
STARTCHAR Idotaccent
ENCODING 304
SWIDTH 167 0
DWIDTH 3 0
BBX 3 15 0 0
BITMAP
C0
80
00
00
80
A0
60
30
24
24
28
18
1C
1C
0C
ENDCHAR
STARTCHAR dotlessi
ENCODING 305
SWIDTH 174 0
DWIDTH 4 0
BBX 2 9 1 0
BITMAP
80
90
90
90
A0
A0
70
70
30
ENDCHAR
STARTCHAR Jcircumflex
ENCODING 308
SWIDTH 439 0
DWIDTH 9 0
BBX 10 20 0 0
BITMAP
000400
000E00
002F80
00A1D0
004040
000000
000800
000900
000600
000700
000300
000300
000340
500240
600240
300240
180240
060240
01D700
006D00
ENDCHAR
STARTCHAR jcircumflex
ENCODING 309
SWIDTH 200 0
DWIDTH 4 0
BBX 7 24 -2 -9
BITMAP
0140
02D0
07F0
1D38
1404
0000
0000
0140
0180
00C0
00D0
00E0
00A0
0070
0070
0030
0034
4024
C024
A024
7024
2824
0BB4
01E0
ENDCHAR
STARTCHAR Kcommaaccent
ENCODING 310
SWIDTH 468 0
DWIDTH 9 0
BBX 9 19 0 -7
BITMAP
401400
907400
51D000
634000
690000
380000
380000
3E0000
338000
30B400
341E00
240280
000000
000000
00D000
009000
009000
01C000
004000
ENDCHAR
STARTCHAR kcommaaccent
ENCODING 311
SWIDTH 403 0
DWIDTH 8 0
BBX 8 19 0 -7
BITMAP
8000
C000
9000
6024
6090
3240
3E00
3C00
3C00
3E00
36E5
306E
0000
0000
0240
0280
0180
0340
0100
ENDCHAR
STARTCHAR Lacute
ENCODING 313
SWIDTH 346 0
DWIDTH 7 0
BBX 7 15 0 0
BITMAP
0060
01D0
0340
0000
1000
3000
7000
7000
6000
6000
A000
A000
A000
7950
1BF4
ENDCHAR
STARTCHAR lacute
ENCODING 314
SWIDTH 120 0
DWIDTH 2 0
BBX 4 15 -1 0
BITMAP
06
28
60
00
14
18
18
18
18
1C
1C
1C
1C
18
18
ENDCHAR
STARTCHAR Lcommaaccent
ENCODING 315
SWIDTH 346 0
DWIDTH 7 0
BBX 7 17 0 -6
BITMAP
1000
3000
7000
7000
6000
6000
A000
A000
A000
7950
1BF4
0000
0000
0700
0300
0300
0700
ENDCHAR
STARTCHAR lcommaaccent
ENCODING 316
SWIDTH 120 0
DWIDTH 2 0
BBX 2 17 0 -6
BITMAP
50
60
60
60
60
70
70
70
70
60
60
00
00
60
70
70
A0
ENDCHAR
STARTCHAR Lcaron
ENCODING 317
SWIDTH 346 0
DWIDTH 7 0
BBX 7 15 0 0
BITMAP
0100
0240
0280
0180
1180
3000
7000
7000
6000
6000
A000
A000
A000
7950
1BF4
ENDCHAR
STARTCHAR lcaron
ENCODING 318
SWIDTH 222 0
DWIDTH 4 0
BBX 4 15 0 0
BITMAP
01
06
07
03
53
60
60
60
60
70
70
70
70
60
60
ENDCHAR
STARTCHAR Ldot
ENCODING 319
SWIDTH 346 0
DWIDTH 7 0
BBX 7 11 0 0
BITMAP
1000
3000
7000
7000
6000
6640
AB80
A100
A000
7950
1BF4
ENDCHAR
STARTCHAR ldot
ENCODING 320
SWIDTH 333 0
DWIDTH 7 0
BBX 6 11 0 0
BITMAP
5000
6000
6000
6000
6000
7090
72E0
7040
7000
6000
6000
ENDCHAR
STARTCHAR Lslash
ENCODING 321
SWIDTH 346 0
DWIDTH 7 0
BBX 8 11 0 0
BITMAP
0800
0C00
1C00
1800
2800
2A00
7D00
B400
2800
1E94
06B9
ENDCHAR
STARTCHAR lslash
ENCODING 322
SWIDTH 120 0
DWIDTH 2 0
BBX 6 12 -2 0
BITMAP
0100
0700
0700
0700
0780
0790
1F00
6700
0700
0700
0300
0100
ENDCHAR
STARTCHAR Nacute
ENCODING 323
SWIDTH 609 0
DWIDTH 12 0
BBX 12 14 0 0
BITMAP
000800
007400
009000
200000
300060
340074
380028
3C001C
7D0009
67000A
62800A
60E00D
703EB8
600A90
ENDCHAR
STARTCHAR nacute
ENCODING 324
SWIDTH 459 0
DWIDTH 9 0
BBX 9 14 0 0
BITMAP
009000
028000
060000
000000
000000
02F400
6D5D00
740A00
700340
700280
700280
340180
240180
180180
ENDCHAR
STARTCHAR Ncommaaccent
ENCODING 325
SWIDTH 609 0
DWIDTH 12 0
BBX 12 18 0 -7
BITMAP
200000
300060
340074
380028
3C001C
7D0009
67000A
62800A
60E00D
703EB8
600A90
000000
000000
002800
001800
001800
002800
001000
ENDCHAR
STARTCHAR ncommaaccent
ENCODING 326
SWIDTH 459 0
DWIDTH 9 0
BBX 9 15 0 -6
BITMAP
02F400
6D5D00
740A00
700340
700280
700280
340180
240180
180180
000000
000000
00C000
00D000
00D000
01C000
ENDCHAR
STARTCHAR Ncaron
ENCODING 327
SWIDTH 609 0
DWIDTH 12 0
BBX 12 15 0 0
BITMAP
019680
002D00
000000
000000
200000
300060
340074
380028
3C001C
7D0009
67000A
62800A
60E00D
703EB8
600A90
ENDCHAR
STARTCHAR ncaron
ENCODING 328
SWIDTH 459 0
DWIDTH 9 0
BBX 9 12 0 0
BITMAP
0A6C00
01E000
000000
02F400
6D5D00
740A00
700340
700280
700280
340180
240180
180180
ENDCHAR
STARTCHAR napostrophe
ENCODING 329
SWIDTH 459 0
DWIDTH 9 0
BBX 9 13 0 0
BITMAP
1C0000
0D0000
0D0000
1C0000
06F400
6D5D00
740A00
700340
700280
700280
340180
240180
180180
ENDCHAR
STARTCHAR Omacron
ENCODING 332
SWIDTH 609 0
DWIDTH 12 0
BBX 12 14 0 0
BITMAP
00AA40
019540
000000
000000
069000
1EAE00
3002D0
900074
90001C
900009
70000A
28000D
0F41B8
02FE90
ENDCHAR
STARTCHAR omacron
ENCODING 333
SWIDTH 487 0
DWIDTH 10 0
BBX 9 11 0 0
BITMAP
06A800
065500
000000
06F900
1E5B40
700180
9000C0
9000C0
6002C0
295F40
0BF800
ENDCHAR
STARTCHAR Obreve
ENCODING 334
SWIDTH 609 0
DWIDTH 12 0
BBX 12 13 0 0
BITMAP
004200
006900
000000
069000
1EAE00
3002D0
900074
90001C
900009
70000A
28000D
0F41B8
02FE90
ENDCHAR
STARTCHAR obreve
ENCODING 335
SWIDTH 487 0
DWIDTH 10 0
BBX 9 12 0 0
BITMAP
042000
02D000
000000
000000
06F900
1E5B40
700180
9000C0
9000C0
6002C0
295F40
0BF800
ENDCHAR
STARTCHAR Ohungarumlaut
ENCODING 336
SWIDTH 609 0
DWIDTH 12 0
BBX 12 14 0 0
BITMAP
00A600
018D00
000400
000000
069000
1EAE00
3002D0
900074
90001C
900009
70000A
28000D
0F41B8
02FE90
ENDCHAR
STARTCHAR ohungarumlaut
ENCODING 337
SWIDTH 487 0
DWIDTH 10 0
BBX 9 11 0 0
BITMAP
025800
0A7400
004000
06F900
1E5B40
700180
9000C0
9000C0
6002C0
295F40
0BF800
ENDCHAR
STARTCHAR OE
ENCODING 338
SWIDTH 848 0
DWIDTH 17 0
BBX 17 10 0 0
BITMAP
0690555500
1EBDD55500
700B800000
9003800000
9002EAA900
9002900000
7002800000
2802800000
0F57801500
01BDBFFA40
ENDCHAR
STARTCHAR oe
ENCODING 339
SWIDTH 875 0
DWIDTH 18 0
BBX 17 11 0 -1
BITMAP
0000069000
00102D7400
07FD601800
2907D01800
6001C07400
9000EAD000
9001D50000
6002D00000
291F740000
0BF81FAA80
000001A900
ENDCHAR
STARTCHAR Racute
ENCODING 340
SWIDTH 579 0
DWIDTH 12 0
BBX 11 17 0 -1
BITMAP
000600
002C00
003000
055400
BAAF80
C001B0
450024
090074
0A1AE0
07F900
074000
03C000
037000
025D00
014740
0040A0
000028
ENDCHAR
STARTCHAR racute
ENCODING 341
SWIDTH 346 0
DWIDTH 7 0
BBX 7 13 0 0
BITMAP
0090
0380
0900
0000
1BE4
B454
A000
6000
6000
3000
2400
1800
0800
ENDCHAR
STARTCHAR Rcommaaccent
ENCODING 342
SWIDTH 579 0
DWIDTH 12 0
BBX 11 20 0 -7
BITMAP
055400
BAAF80
C001B0
450024
090074
0A1AE0
07F900
074000
03C000
037000
025D00
014740
0040A0
000028
000000
002400
002800
002800
003400
001000
ENDCHAR
STARTCHAR rcommaaccent
ENCODING 343
SWIDTH 346 0
DWIDTH 7 0
BBX 7 15 0 -6
BITMAP
1BE4
B454
A000
6000
6000
3000
2400
1800
0800
0000
0000
0700
0300
0300
0700
ENDCHAR
STARTCHAR Rcaron
ENCODING 344
SWIDTH 579 0
DWIDTH 12 0
BBX 11 17 0 -1
BITMAP
019740
003D00
000000
055400
BAAF80
C001B0
450024
090074
0A1AE0
07F900
074000
03C000
037000
025D00
014740
0040A0
000028
ENDCHAR
STARTCHAR rcaron
ENCODING 345
SWIDTH 346 0
DWIDTH 7 0
BBX 7 12 0 0
BITMAP
29B0
0780
0000
1BE4
B454
A000
6000
6000
3000
2400
1800
0800
ENDCHAR
STARTCHAR Sacute
ENCODING 346
SWIDTH 627 0
DWIDTH 13 0
BBX 12 16 0 0
BITMAP
000600
002C00
006000
000000
00BF90
034078
060004
034000
01D000
002D00
0006D0
500068
A0000A
340007
1A401A
01BFF8
ENDCHAR
STARTCHAR sacute
ENCODING 347
SWIDTH 514 0
DWIDTH 10 0
BBX 10 14 0 0
BITMAP
000800
007400
00D000
000000
000000
1BF400
341C00
700800
294000
06BE40
0001D0
5000A0
3901D0
0AFF40
ENDCHAR
STARTCHAR Scircumflex
ENCODING 348
SWIDTH 627 0
DWIDTH 13 0
BBX 12 18 0 0
BITMAP
000800
001E00
003F40
00E2C0
004040
000000
00BF90
034078
060004
034000
01D000
002D00
0006D0
500068
A0000A
340007
1A401A
01BFF8
ENDCHAR
STARTCHAR scircumflex
ENCODING 349
SWIDTH 514 0
DWIDTH 10 0
BBX 10 15 0 0
BITMAP
001000
007400
01FD00
074A00
010100
000000
1BF400
341C00
700800
294000
06BE40
0001D0
5000A0
3901D0
0AFF40
ENDCHAR
STARTCHAR Scedilla
ENCODING 350
SWIDTH 627 0
DWIDTH 13 0
BBX 12 18 0 -6
BITMAP
00BF90
034078
060004
034000
01D000
002D00
0006D0
500068
A0000A
340007
1A401A
01FFF8
00C000
009000
002A00
000180
009180
007A40
ENDCHAR
STARTCHAR scedilla
ENCODING 351
SWIDTH 514 0
DWIDTH 10 0
BBX 10 15 0 -6
BITMAP
1BF400
341C00
700800
294000
06BE40
0001D0
5000A0
3901D0
0BFF40
020000
034000
01A800
000A00
060600
01E900
ENDCHAR
STARTCHAR Scaron
ENCODING 352
SWIDTH 627 0
DWIDTH 13 0
BBX 12 15 0 0
BITMAP
00A680
001E00
000000
00BF90
034078
060004
034000
01D000
002D00
0006D0
500068
A0000A
340007
1A401A
01BFF8
ENDCHAR
STARTCHAR scaron
ENCODING 353
SWIDTH 514 0
DWIDTH 10 0
BBX 10 12 0 0
BITMAP
069A00
00B800
000000
1BF400
341C00
700800
294000
06BE40
0001D0
5000A0
3901D0
0AFF40
ENDCHAR
STARTCHAR Tcommaaccent
ENCODING 354
SWIDTH 581 0
DWIDTH 12 0
BBX 14 20 0 -7
BITMAP
55400000
6BFFFA40
00091690
00090000
00090000
00090000
000A0000
00060000
00070000
00030000
00034000
00038000
0002C000
00000000
00000000
00024000
00028000
00028000
00034000
00010000
ENDCHAR
STARTCHAR tcommaaccent
ENCODING 355
SWIDTH 328 0
DWIDTH 7 0
BBX 7 18 0 -6
BITMAP
0600
0600
0600
0B00
BFF4
1B40
0700
0700
0700
0700
0300
0200
0000
0000
0600
0700
0700
0A00
ENDCHAR
STARTCHAR Tcaron
ENCODING 356
SWIDTH 581 0
DWIDTH 12 0
BBX 14 15 0 0
BITMAP
01974000
003D0000
55540000
6BFFFA40
00091690
00090000
00090000
00090000
000A0000
00060000
00070000
00030000
00034000
00038000
0002C000
ENDCHAR
STARTCHAR tcaron
ENCODING 357
SWIDTH 431 0
DWIDTH 9 0
BBX 9 15 0 0
BITMAP
000100
000300
000300
060340
060240
060000
0B0000
BFF400
1B4000
070000
070000
070000
070000
030000
020000
ENDCHAR
STARTCHAR Utilde
ENCODING 360
SWIDTH 571 0
DWIDTH 11 0
BBX 11 14 0 0
BITMAP
029090
092B40
050500
240040
6000D0
5000D0
500090
6000A0
600060
300070
240074
1801F8
0E5A5C
02F404
ENDCHAR
STARTCHAR utilde
ENCODING 361
SWIDTH 501 0
DWIDTH 10 0
BBX 10 13 0 0
BITMAP
068180
0C7B00
080400
500000
900200
900340
900340
600380
700380
280B80
1D68C0
07E0A0
000050
ENDCHAR
STARTCHAR Umacron
ENCODING 362
SWIDTH 571 0
DWIDTH 11 0
BBX 11 14 0 0
BITMAP
01AA00
029500
000000
240040
6000D0
5000D0
500090
6000A0
600060
300070
240074
1801F8
0E5A5C
02F404
ENDCHAR
STARTCHAR umacron
ENCODING 363
SWIDTH 501 0
DWIDTH 10 0
BBX 10 12 0 0
BITMAP
06A800
0A5400
500000
900200
900340
900340
600380
700380
280B80
1D68C0
07E0A0
000050
ENDCHAR
STARTCHAR Ubreve
ENCODING 364
SWIDTH 571 0
DWIDTH 11 0
BBX 11 13 0 0
BITMAP
004500
00B800
240040
6000D0
5000D0
500090
6000A0
600060
300070
240074
1801F8
0E5A5C
02F404
ENDCHAR
STARTCHAR ubreve
ENCODING 365
SWIDTH 501 0
DWIDTH 10 0
BBX 10 12 0 0
BITMAP
052400
02E000
500000
900200
900340
900340
600380
700380
280B80
1D68C0
07E0A0
000050
ENDCHAR
STARTCHAR Uring
ENCODING 366
SWIDTH 571 0
DWIDTH 11 0
BBX 11 15 0 0
BITMAP
001000
009800
014500
00A800
240040
6000D0
5000D0
500090
6000A0
600060
300070
240074
1801F8
0E5A5C
02F404
ENDCHAR
STARTCHAR uring
ENCODING 367
SWIDTH 501 0
DWIDTH 10 0
BBX 10 12 0 0
BITMAP
005000
026400
521800
91A200
900340
900340
600380
700380
280B80
1D68C0
07E0A0
000050
ENDCHAR
STARTCHAR Uhungarumlaut
ENCODING 368
SWIDTH 571 0
DWIDTH 11 0
BBX 11 14 0 0
BITMAP
01DA00
025800
001000
240040
6000D0
5000D0
500090
6000A0
600060
300070
240074
1801F8
0E5A5C
02F404
ENDCHAR
STARTCHAR uhungarumlaut
ENCODING 369
SWIDTH 501 0
DWIDTH 10 0
BBX 10 13 0 0
BITMAP
01D600
025C00
001000
500000
900200
900340
900340
600380
700380
280B80
1D68C0
07E0A0
000050
ENDCHAR
STARTCHAR Uogonek
ENCODING 370
SWIDTH 571 0
DWIDTH 11 0
BBX 12 14 0 -4
BITMAP
240040
300090
6000A0
6000A0
200060
300030
200034
280078
0D01FC
0B9A5D
01E464
0000C0
0000B9
000004
ENDCHAR
STARTCHAR uogonek
ENCODING 371
SWIDTH 501 0
DWIDTH 10 0
BBX 10 13 0 -3
BITMAP
100000
900100
900340
900340
A00380
700380
340B80
1D1DC0
0BF090
0042E0
000600
000640
0001A0
ENDCHAR
STARTCHAR Wcircumflex
ENCODING 372
SWIDTH 703 0
DWIDTH 14 0
BBX 14 18 0 0
BITMAP
00050000
000B4000
001FD000
0074E000
00501000
00000000
00000000
00000000
80000100
90000240
900002C0
900001D0
A01800D0
A01C00A0
701D0060
347F0090
2EE2D680
0A407E00
ENDCHAR
STARTCHAR wcircumflex
ENCODING 373
SWIDTH 656 0
DWIDTH 13 0
BBX 13 15 0 0
BITMAP
00040000
000E0000
002F8000
00A1D000
00404000
00000000
10000000
60000000
A0040900
900D0300
900D0240
A00E0280
301F0380
29B6AB40
0BD0A900
ENDCHAR
STARTCHAR Ycircumflex
ENCODING 374
SWIDTH 403 0
DWIDTH 8 0
BBX 8 19 0 -1
BITMAP
0140
02D0
07F4
1D28
1404
8000
A006
340A
1D0D
07AC
01B8
0034
0070
00A0
0090
00C0
00C0
00C0
0040
ENDCHAR
STARTCHAR ycircumflex
ENCODING 375
SWIDTH 487 0
DWIDTH 10 0
BBX 10 25 0 -10
BITMAP
005000
00B400
01FC00
074E00
040100
000000
400040
900180
900180
A001C0
7000C0
3401D0
1803D0
0BAE90
019090
000050
000090
000090
000090
0000D0
1000C0
340180
1D0240
07AB00
006800
ENDCHAR
STARTCHAR Ydieresis
ENCODING 376
SWIDTH 403 0
DWIDTH 8 0
BBX 8 17 0 -1
BITMAP
0410
1D78
0410
8000
A006
340A
1D0D
07AC
01B8
0034
0070
00A0
0090
00C0
00C0
00C0
0040
ENDCHAR
STARTCHAR Zacute
ENCODING 377
SWIDTH 571 0
DWIDTH 11 0
BBX 11 17 0 0
BITMAP
000900
003800
009000
000000
054000
7AB800
400A00
000300
000300
000600
016FA0
0BBE50
003400
006000
01C000
0285BC
01FF90
ENDCHAR
STARTCHAR zacute
ENCODING 378
SWIDTH 459 0
DWIDTH 9 0
BBX 9 14 0 0
BITMAP
006000
02C000
060000
054000
7EB400
501800
001800
002400
15B900
2BD400
034000
0A0000
1E5B80
0BF900
ENDCHAR
STARTCHAR Zdotaccent
ENCODING 379
SWIDTH 571 0
DWIDTH 11 0
BBX 11 15 0 0
BITMAP
00D000
009000
054000
7AB800
400A00
000300
000300
000600
016FA0
0BBE50
003400
006000
01C000
0285BC
01FF90
ENDCHAR
STARTCHAR zdotaccent
ENCODING 380
SWIDTH 459 0
DWIDTH 9 0
BBX 9 13 0 0
BITMAP
009000
009000
054000
7EB400
501800
001800
002400
15B900
2BD400
034000
0A0000
1E5B80
0BF900
ENDCHAR
STARTCHAR Zcaron
ENCODING 381
SWIDTH 571 0
DWIDTH 11 0
BBX 11 16 0 0
BITMAP
065D00
00B400
000000
054000
7AB800
400A00
000300
000300
000600
016FA0
0BBE50
003400
006000
01C000
0285BC
01FF90
ENDCHAR
STARTCHAR zcaron
ENCODING 382
SWIDTH 459 0
DWIDTH 9 0
BBX 9 14 0 0
BITMAP
197400
03D000
000000
054000
7EB400
501800
001800
002400
15B900
2BD400
034000
0A0000
1E5B80
0BF900
ENDCHAR
STARTCHAR florin
ENCODING 402
SWIDTH 376 0
DWIDTH 8 0
BBX 11 19 -2 -5
BITMAP
001FD0
003874
00A01C
00D000
00C000
00C000
00D000
01E540
0EEA80
009000
009000
009000
009000
009000
00D000
40D000
A0D000
29C000
07C000
ENDCHAR
STARTCHAR AEacute
ENCODING 508
SWIDTH 960 0
DWIDTH 19 0
BBX 19 17 0 0
BITMAP
0000020000
00101D0000
02AD340000
0907400000
1801C55550
24009EAAA4
20006C0000
20003C0000
20003C0000
30002D5AE0
7AA97EA500
7555680000
3000180000
3000180000
2400180000
28002D56A4
18002AFFA0
ENDCHAR
STARTCHAR aeacute
ENCODING 509
SWIDTH 881 0
DWIDTH 18 0
BBX 17 15 0 -1
BITMAP
0000180000
0000740000
0000C00000
0000000000
02E006E000
016D292800
0007600C00
0002D00C00
1BFBD07400
7407EFD000
9000D00000
6000600000
395AB90000
06FE4BEB80
0000005400
ENDCHAR
STARTCHAR Oslashacute
ENCODING 510
SWIDTH 609 0
DWIDTH 12 0
BBX 12 16 0 -2
BITMAP
000800
007400
009000
000000
069240
1EAF00
3007D0
900974
900C1C
901809
70240A
28700D
0FA1B8
02FE90
028000
010000
ENDCHAR
STARTCHAR oslashacute
ENCODING 511
SWIDTH 487 0
DWIDTH 10 0
BBX 9 12 0 0
BITMAP
002400
00A000
018000
001040
07FF40
290B40
600EC0
9028C0
90B1C0
61D280
2B5F40
0FF800
ENDCHAR
STARTCHAR Scommaaccent
ENCODING 536
SWIDTH 627 0
DWIDTH 13 0
BBX 12 19 0 -7
BITMAP
00BF90
034078
060004
034000
01D000
002D00
0006D0
500068
A0000A
340007
1A401A
01BFF8
000000
000000
002400
002800
002800
003400
001000
ENDCHAR
STARTCHAR scommaaccent
ENCODING 537
SWIDTH 514 0
DWIDTH 10 0
BBX 10 16 0 -7
BITMAP
1BF400
341C00
700800
294000
06BE40
0001D0
5000A0
3901D0
0AFF40
000000
000000
00A000
007000
006000
00A000
004000
ENDCHAR
STARTCHAR circumflex
ENCODING 710
SWIDTH 375 0
DWIDTH 8 0
BBX 6 5 1 10
BITMAP
0500
0F00
2F80
B1D0
4040
ENDCHAR
STARTCHAR caron
ENCODING 711
SWIDTH 375 0
DWIDTH 8 0
BBX 6 2 1 10
BITMAP
65D0
0F40
ENDCHAR
STARTCHAR breve
ENCODING 728
SWIDTH 224 0
DWIDTH 5 0
BBX 4 2 0 8
BITMAP
42
2D
ENDCHAR
STARTCHAR dotaccent
ENCODING 729
SWIDTH 152 0
DWIDTH 3 0
BBX 1 2 1 9
BITMAP
C0
80
ENDCHAR
STARTCHAR ring
ENCODING 730
SWIDTH 333 0
DWIDTH 7 0
BBX 4 4 2 8
BITMAP
14
99
85
A8
ENDCHAR
STARTCHAR ogonek
ENCODING 731
SWIDTH 254 0
DWIDTH 5 0
BBX 5 4 0 -3
BITMAP
1800
7400
6000
2A40
ENDCHAR
STARTCHAR tilde
ENCODING 732
SWIDTH 402 0
DWIDTH 8 0
BBX 8 3 0 8
BITMAP
2909
62B8
5050
ENDCHAR
STARTCHAR hungarumlaut
ENCODING 733
SWIDTH 264 0
DWIDTH 5 0
BBX 5 3 0 8
BITMAP
2980
6340
0100
ENDCHAR
STARTCHAR Wgrave
ENCODING 7808
SWIDTH 703 0
DWIDTH 14 0
BBX 14 14 0 0
BITMAP
00090000
00034000
00000000
00000000
80000100
90000240
900002C0
900001D0
A01800D0
A01C00A0
701D0060
347F0090
2EE2D680
0A407E00
ENDCHAR
STARTCHAR wgrave
ENCODING 7809
SWIDTH 656 0
DWIDTH 13 0
BBX 13 11 0 0
BITMAP
00180000
00070000
10010000
60000000
A0040900
900D0300
900D0240
A00E0280
301F0380
29B6AB40
0BD0A900
ENDCHAR
STARTCHAR Wacute
ENCODING 7810
SWIDTH 703 0
DWIDTH 14 0
BBX 14 14 0 0
BITMAP
00020000
001D0000
00240000
00000000
80000100
90000240
900002C0
900001D0
A01800D0
A01C00A0
701D0060
347F0090
2EE2D680
0A407E00
ENDCHAR
STARTCHAR wacute
ENCODING 7811
SWIDTH 656 0
DWIDTH 13 0
BBX 13 13 0 0
BITMAP
00020000
001D0000
00240000
00000000
10000000
60000000
A0040900
900D0300
900D0240
A00E0280
301F0380
29B6AB40
0BD0A900
ENDCHAR
STARTCHAR Wdieresis
ENCODING 7812
SWIDTH 703 0
DWIDTH 14 0
BBX 14 14 0 0
BITMAP
00104000
0075E000
00104000
00000000
80000100
90000240
900002C0
900001D0
A01800D0
A01C00A0
701D0060
347F0090
2EE2D680
0A407E00
ENDCHAR
STARTCHAR wdieresis
ENCODING 7813
SWIDTH 656 0
DWIDTH 13 0
BBX 13 11 0 0
BITMAP
00514000
00F2C000
10514000
60000000
A0040900
900D0300
900D0240
A00E0280
301F0380
29B6AB40
0BD0A900
ENDCHAR
STARTCHAR Ygrave
ENCODING 7922
SWIDTH 403 0
DWIDTH 8 0
BBX 8 17 0 -1
BITMAP
0340
01D0
0000
8000
A006
340A
1D0D
07AC
01B8
0034
0070
00A0
0090
00C0
00C0
00C0
0040
ENDCHAR
STARTCHAR ygrave
ENCODING 7923
SWIDTH 487 0
DWIDTH 10 0
BBX 10 21 0 -10
BITMAP
00D000
007400
400040
900180
900180
A001C0
7000C0
3401D0
1803D0
0BAE90
019090
000050
000090
000090
000090
0000D0
1000C0
340180
1D0240
07AB00
006800
ENDCHAR
STARTCHAR endash
ENCODING 8211
SWIDTH 287 0
DWIDTH 6 0
BBX 6 2 0 5
BITMAP
1540
BED0
ENDCHAR
STARTCHAR emdash
ENCODING 8212
SWIDTH 512 0
DWIDTH 10 0
BBX 10 2 0 5
BITMAP
015540
7FFAD0
ENDCHAR
STARTCHAR quoteleft
ENCODING 8216
SWIDTH 102 0
DWIDTH 2 0
BBX 2 5 0 10
BITMAP
40
90
A0
60
60
ENDCHAR
STARTCHAR quoteright
ENCODING 8217
SWIDTH 102 0
DWIDTH 2 0
BBX 2 5 0 10
BITMAP
40
90
A0
60
60
ENDCHAR
STARTCHAR quotesinglbase
ENCODING 8218
SWIDTH 102 0
DWIDTH 2 0
BBX 2 5 0 -1
BITMAP
90
A0
60
60
10
ENDCHAR
STARTCHAR quotedblleft
ENCODING 8220
SWIDTH 234 0
DWIDTH 5 0
BBX 4 6 0 10
BITMAP
42
93
93
63
73
23
ENDCHAR
STARTCHAR quotedblright
ENCODING 8221
SWIDTH 234 0
DWIDTH 5 0
BBX 4 6 0 10
BITMAP
42
93
93
63
73
23
ENDCHAR
STARTCHAR quotedblbase
ENCODING 8222
SWIDTH 341 0
DWIDTH 7 0
BBX 5 7 1 -3
BITMAP
0100
9300
6340
7340
3240
2640
0100
ENDCHAR
STARTCHAR dagger
ENCODING 8224
SWIDTH 375 0
DWIDTH 8 0
BBX 7 13 0 0
BITMAP
0500
0600
0300
0300
1BA4
7AA8
0180
0180
0180
0180
0180
0180
0180
ENDCHAR
STARTCHAR daggerdbl
ENCODING 8225
SWIDTH 375 0
DWIDTH 8 0
BBX 10 15 -1 0
BITMAP
018000
018000
01C000
00C000
009000
5AEA40
AAA590
006000
AAFF80
556540
006000
006000
006000
006000
006000
ENDCHAR
STARTCHAR bullet
ENCODING 8226
SWIDTH 341 0
DWIDTH 7 0
BBX 4 4 2 3
BITMAP
78
BD
BD
24
ENDCHAR
STARTCHAR ellipsis
ENCODING 8230
SWIDTH 612 0
DWIDTH 12 0
BBX 11 4 1 0
BITMAP
606060
F4B4B8
F4F8F8
A0B070
ENDCHAR
STARTCHAR guilsinglleft
ENCODING 8249
SWIDTH 487 0
DWIDTH 10 0
BBX 9 8 0 0
BITMAP
000280
001E00
00A400
074000
2D0000
B90000
6FF900
005740
ENDCHAR
STARTCHAR guilsinglright
ENCODING 8250
SWIDTH 403 0
DWIDTH 8 0
BBX 8 9 0 0
BITMAP
7400
1F90
01BE
000A
002D
00A0
0780
2D00
6000
ENDCHAR
STARTCHAR fraction
ENCODING 8260
SWIDTH 309 0
DWIDTH 6 0
BBX 6 15 0 0
BITMAP
0020
0060
0060
0090
01C0
0280
0340
0700
0A00
0D00
1C00
2800
7000
A000
9000
ENDCHAR
STARTCHAR Euro
ENCODING 8364
SWIDTH 741 0
DWIDTH 15 0
BBX 14 14 0 0
BITMAP
00001B80
0000B480
00024000
001FA400
BFFEA800
50600000
00900000
01EAF800
BFD50000
01800000
01800000
00C00000
00A45AF0
002FFA40
ENDCHAR
STARTCHAR trademark
ENCODING 8482
SWIDTH 1116 0
DWIDTH 22 0
BBX 22 13 0 0
BITMAP
550000000000
6FFFEAE001C0
000916F402C0
0009003807C0
0009003A6F80
00090032E5C0
000A003001C0
0006007000C0
0007007000D0
0007007000D0
0003407000A0
0003807000A0
0002C01000A0
ENDCHAR
STARTCHAR minus
ENCODING 8722
SWIDTH 287 0
DWIDTH 6 0
BBX 6 2 0 5
BITMAP
1540
BED0
ENDCHAR
STARTCHAR commaaccent
ENCODING 63171
SWIDTH 375 0
DWIDTH 8 0
BBX 2 5 2 -7
BITMAP
A0
60
60
A0
40
ENDCHAR
STARTCHAR fi
ENCODING 64257
SWIDTH 551 0
DWIDTH 11 0
BBX 9 14 0 0
BITMAP
01FD00
034740
0905C0
0C0800
0C0000
0C0100
0C0600
1E5A00
EFFE00
070700
034700
01C340
00E340
007280
ENDCHAR
STARTCHAR fl
ENCODING 64258
SWIDTH 723 0
DWIDTH 14 0
BBX 9 14 0 0
BITMAP
01FD00
034740
0901C0
0C0900
0C0A00
0C0A00
0C0A00
1E5A00
EFFE00
070A00
034A00
01CA00
00EA00
007500
ENDCHAR
STARTCHAR .notdef
ENCODING -1
SWIDTH 375 0
DWIDTH 8 0
BBX 1 1 0 0
BITMAP
00
ENDCHAR
STARTCHAR .null
ENCODING -1
SWIDTH 0 0
DWIDTH 0 0
BBX 1 1 0 0
BITMAP
00
ENDCHAR
STARTCHAR nonmarkingreturn
ENCODING -1
SWIDTH 375 0
DWIDTH 8 0
BBX 1 1 0 0
BITMAP
00
ENDCHAR
ENDFONT
